<svg width="472" height="66" viewBox="0 0 472 66" fill="none" xmlns="http://www.w3.org/2000/svg">
<path d="M62.316 54.4L63.6129 55.9225L64.8813 54.8421L64.0477 53.3994L62.316 54.4ZM56.038 58.614L57.0221 60.3551L57.0221 60.3551L56.038 58.614ZM47.008 62.398L47.5617 64.3198L47.5767 64.3155L47.5916 64.311L47.008 62.398ZM23.014 61.71L22.3263 63.588L22.338 63.5923L22.3498 63.5965L23.014 61.71ZM12.35 55.432L11.023 56.9284L11.023 56.9284L12.35 55.432ZM5.212 45.714L3.3866 46.5313L3.39127 46.5416L5.212 45.714ZM5.298 20.688L7.10321 21.5489L7.10321 21.5489L5.298 20.688ZM12.608 10.97L11.2929 9.46315L11.2861 9.46913L11.2793 9.47518L12.608 10.97ZM23.444 4.606L24.1317 6.48404L24.1433 6.47978L24.1549 6.47539L23.444 4.606ZM47.094 3.746L46.5488 5.67025L46.5488 5.67025L47.094 3.746ZM56.296 7.53L55.2998 9.26421L55.3076 9.26871L55.3155 9.27315L56.296 7.53ZM62.918 12.432L64.518 13.632L65.5411 12.2679L64.356 11.042L62.918 12.432ZM57.242 20L55.9528 21.529L57.5716 22.8939L58.842 21.2L57.242 20ZM47.524 13.894L46.6653 15.7003L46.683 15.7087L46.7008 15.7167L47.524 13.894ZM26.97 12.948L27.6255 14.8375L27.6426 14.8316L27.6596 14.8253L26.97 12.948ZM19.402 17.248L20.6706 18.7941L20.6823 18.7845L20.6939 18.7748L19.402 17.248ZM14.07 23.956L12.2811 23.0616L12.2811 23.0616L14.07 23.956ZM14.156 42.446L12.3671 43.3404L12.3709 43.348L12.3748 43.3556L14.156 42.446ZM19.66 49.24L18.4106 50.8017L18.42 50.8092L18.4295 50.8166L19.66 49.24ZM27.658 53.368L27.0698 55.2796L27.08 55.2827L27.658 53.368ZM45.546 53.54L46.1524 55.4459L46.1655 55.4417L46.1785 55.4374L45.546 53.54ZM52.426 50.358L53.4903 52.0513L53.4903 52.0513L52.426 50.358ZM57.844 46.66L59.5757 45.6594L58.4478 43.7072L56.644 45.06L57.844 46.66ZM61.0191 52.8775C59.6028 54.084 57.6285 55.4177 55.0539 56.8729L57.0221 60.3551C59.7222 58.829 61.9332 57.3534 63.6129 55.9225L61.0191 52.8775ZM55.0539 56.8729C52.5624 58.2811 49.6903 59.4887 46.4244 60.485L47.5916 64.311C51.0911 63.2433 54.2389 61.9282 57.0221 60.3551L55.0539 56.8729ZM46.4543 60.4762C43.2672 61.3945 39.8429 61.86 36.172 61.86V65.86C40.1837 65.86 43.9835 65.3508 47.5617 64.3198L46.4543 60.4762ZM36.172 61.86C31.6767 61.86 27.5173 61.1753 23.6783 59.8235L22.3498 63.5965C26.6521 65.1114 31.2646 65.86 36.172 65.86V61.86ZM23.7017 59.832C19.8502 58.4215 16.516 56.4532 13.677 53.9356L11.023 56.9284C14.2613 59.8001 18.0365 62.0171 22.3263 63.588L23.7017 59.832ZM13.677 53.9356C10.8529 51.4313 8.6396 48.4215 7.03273 44.8864L3.39127 46.5416C5.2244 50.5745 7.76976 54.0434 11.023 56.9284L13.677 53.9356ZM7.03737 44.8967C5.44529 41.341 4.632 37.3527 4.632 32.9H0.632C0.632 37.8499 1.53871 42.4043 3.38663 46.5313L7.03737 44.8967ZM4.632 32.9C4.632 28.7622 5.46288 24.9883 7.10321 21.5489L3.49279 19.8271C1.57846 23.841 0.632 28.2085 0.632 32.9H4.632ZM7.10321 21.5489C8.76523 18.0641 11.0396 15.04 13.9367 12.4648L11.2793 9.47518C7.9844 12.404 5.38544 15.8586 3.49279 19.8271L7.10321 21.5489ZM13.9231 12.4768C16.8852 9.89171 20.2828 7.89351 24.1317 6.48404L22.7563 2.72796C18.4639 4.29982 14.6375 6.54428 11.2929 9.46315L13.9231 12.4768ZM24.1549 6.47539C27.9895 5.01718 32.0477 4.284 36.344 4.284V0.283997C31.5816 0.283997 27.0399 1.09882 22.7331 2.73661L24.1549 6.47539ZM36.344 4.284C39.8941 4.284 43.2935 4.74793 46.5488 5.67025L47.6392 1.82175C44.0145 0.794731 40.2472 0.283997 36.344 0.283997V4.284ZM46.5488 5.67025C49.8543 6.60682 52.7665 7.80893 55.2998 9.26421L57.2923 5.79579C54.4362 4.15507 51.2137 2.83451 47.6392 1.82175L46.5488 5.67025ZM55.3155 9.27315C57.9492 10.7546 59.987 12.2776 61.48 13.822L64.356 11.042C62.5236 9.14642 60.1468 7.40136 57.2765 5.78685L55.3155 9.27315ZM61.318 11.232L55.642 18.8L58.842 21.2L64.518 13.632L61.318 11.232ZM58.5312 18.471C55.4634 15.8843 52.0666 13.751 48.3472 12.0713L46.7008 15.7167C50.0907 17.2477 53.1727 19.185 55.9528 21.529L58.5312 18.471ZM48.3827 12.0877C44.5818 10.2808 40.3261 9.4 35.656 9.4V13.4C39.8153 13.4 43.4715 14.1819 46.6653 15.7003L48.3827 12.0877ZM35.656 9.4C32.4384 9.4 29.3097 9.95784 26.2804 11.0707L27.6596 14.8253C30.249 13.8742 32.9109 13.4 35.656 13.4V9.4ZM26.3145 11.0585C23.2761 12.1126 20.537 13.6677 18.1101 15.7212L20.6939 18.7748C22.739 17.0443 25.0452 15.7327 27.6255 14.8375L26.3145 11.0585ZM18.1334 15.7019C15.6758 17.7183 13.723 20.1779 12.2811 23.0616L15.8589 24.8504C17.0543 22.4594 18.6562 20.447 20.6706 18.7941L18.1334 15.7019ZM12.2811 23.0616C10.8068 26.0103 10.092 29.3042 10.092 32.9H14.092C14.092 29.8452 14.6959 27.1764 15.8589 24.8504L12.2811 23.0616ZM10.092 32.9C10.092 36.7687 10.8301 40.2663 12.3671 43.3404L15.9449 41.5516C14.7299 39.1217 14.092 36.2553 14.092 32.9H10.092ZM12.3748 43.3556C13.8758 46.295 15.889 48.7844 18.4106 50.8017L20.9094 47.6783C18.8444 46.0262 17.1882 43.9863 15.9372 41.5364L12.3748 43.3556ZM18.4295 50.8166C20.9808 52.808 23.8666 54.294 27.0698 55.2796L28.2462 51.4564C25.4867 50.6074 23.0405 49.3414 20.8905 47.6634L18.4295 50.8166ZM27.08 55.2827C30.3083 56.2572 33.6278 56.744 37.032 56.744V52.744C34.0149 52.744 31.0851 52.3134 28.236 51.4533L27.08 55.2827ZM37.032 56.744C40.353 56.744 43.4003 56.3215 46.1524 55.4459L44.9396 51.6341C42.6463 52.3638 40.0177 52.744 37.032 52.744V56.744ZM46.1785 55.4374C48.8883 54.5341 51.3303 53.409 53.4903 52.0513L51.3617 48.6647C49.5084 49.8296 47.3637 50.8259 44.9135 51.6426L46.1785 55.4374ZM53.4903 52.0513C55.5354 50.7658 57.3877 49.5022 59.044 48.26L56.644 45.06C55.0896 46.2258 53.3299 47.4275 51.3617 48.6647L53.4903 52.0513ZM56.1123 47.6606L60.5843 55.4006L64.0477 53.3994L59.5757 45.6594L56.1123 47.6606ZM95.6753 2.8H97.6753V0.799996H95.6753V2.8ZM95.6753 28.772H93.6753V30.772H95.6753V28.772ZM135.321 28.772V30.772H137.321V28.772H135.321ZM135.321 2.8V0.799996H133.321V2.8H135.321ZM144.609 2.8H146.609V0.799996H144.609V2.8ZM144.609 63V65H146.609V63H144.609ZM135.321 63H133.321V65H135.321V63ZM135.321 37.716H137.321V35.716H135.321V37.716ZM95.6753 37.716V35.716H93.6753V37.716H95.6753ZM95.6753 63V65H97.6753V63H95.6753ZM86.3873 63H84.3873V65H86.3873V63ZM86.3873 2.8V0.799996H84.3873V2.8H86.3873ZM93.6753 2.8V28.772H97.6753V2.8H93.6753ZM95.6753 30.772H135.321V26.772H95.6753V30.772ZM137.321 28.772V2.8H133.321V28.772H137.321ZM135.321 4.8H144.609V0.799996H135.321V4.8ZM142.609 2.8V63H146.609V2.8H142.609ZM144.609 61H135.321V65H144.609V61ZM137.321 63V37.716H133.321V63H137.321ZM135.321 35.716H95.6753V39.716H135.321V35.716ZM93.6753 37.716V63H97.6753V37.716H93.6753ZM95.6753 61H86.3873V65H95.6753V61ZM88.3873 63V2.8H84.3873V63H88.3873ZM86.3873 4.8H95.6753V0.799996H86.3873V4.8ZM172.975 2.8V0.799996H170.975V2.8H172.975ZM220.533 2.8H222.533V0.799996H220.533V2.8ZM220.533 11.744V13.744H222.533V11.744H220.533ZM182.263 11.744V9.744H180.263V11.744H182.263ZM182.263 27.654H180.263V29.654H182.263V27.654ZM215.803 27.654H217.803V25.654H215.803V27.654ZM215.803 36.598V38.598H217.803V36.598H215.803ZM182.263 36.598V34.598H180.263V36.598H182.263ZM182.263 54.056H180.263V56.056H182.263V54.056ZM220.533 54.056H222.533V52.056H220.533V54.056ZM220.533 63V65H222.533V63H220.533ZM172.975 63H170.975V65H172.975V63ZM172.975 4.8H220.533V0.799996H172.975V4.8ZM218.533 2.8V11.744H222.533V2.8H218.533ZM220.533 9.744H182.263V13.744H220.533V9.744ZM180.263 11.744V27.654H184.263V11.744H180.263ZM182.263 29.654H215.803V25.654H182.263V29.654ZM213.803 27.654V36.598H217.803V27.654H213.803ZM215.803 34.598H182.263V38.598H215.803V34.598ZM180.263 36.598V54.056H184.263V36.598H180.263ZM182.263 56.056H220.533V52.056H182.263V56.056ZM218.533 54.056V63H222.533V54.056H218.533ZM220.533 61H172.975V65H220.533V61ZM174.975 63V2.8H170.975V63H174.975ZM297.961 29.202L296.173 28.3076L296.164 28.3248L296.156 28.3421L297.961 29.202ZM293.145 35.48L291.84 33.9645L291.84 33.9645L293.145 35.48ZM286.093 39.522L285.436 37.633L282.905 38.5135L284.47 40.6895L286.093 39.522ZM303.035 63.086L303.02 65.0859L306.958 65.1153L304.659 61.9185L303.035 63.086ZM291.511 63L289.884 64.1625L290.477 64.9923L291.496 64.9999L291.511 63ZM275.601 40.726L277.229 39.5635L276.631 38.726H275.601V40.726ZM256.337 40.726V38.726H254.337V40.726H256.337ZM256.337 63V65H258.337V63H256.337ZM247.049 63H245.049V65H247.049V63ZM247.049 2.8V0.799996H245.049V2.8H247.049ZM289.877 5.294L288.889 7.03258L288.909 7.04399L288.929 7.05494L289.877 5.294ZM297.015 11.916L295.325 12.9853L295.338 13.0055L295.351 13.0254L297.015 11.916ZM256.337 11.744V9.744H254.337V11.744H256.337ZM256.337 31.782H254.337V33.782H256.337V31.782ZM284.201 30.406L285.143 32.1707L285.153 32.1652L285.163 32.1596L284.201 30.406ZM288.415 26.622L290.079 27.7314L290.089 27.7175L290.098 27.7035L288.415 26.622ZM288.329 16.474L286.715 17.654L286.726 17.6692L286.737 17.6842L288.329 16.474ZM283.943 13.034L283.095 14.8449L283.118 14.8559L283.142 14.8663L283.943 13.034ZM297.767 21.462C297.767 23.9106 297.235 26.1836 296.173 28.3076L299.75 30.0964C301.096 27.4044 301.767 24.5173 301.767 21.462H297.767ZM296.156 28.3421C295.131 30.4937 293.698 32.3646 291.84 33.9645L294.45 36.9955C296.72 35.0408 298.498 32.7263 299.767 30.0619L296.156 28.3421ZM291.84 33.9645C289.972 35.5735 287.842 36.7962 285.436 37.633L286.75 41.411C289.619 40.4132 292.191 38.9412 294.45 36.9955L291.84 33.9645ZM284.47 40.6895L301.412 64.2535L304.659 61.9185L287.717 38.3545L284.47 40.6895ZM303.05 61.0861L291.526 61.0001L291.496 64.9999L303.02 65.0859L303.05 61.0861ZM293.139 61.8375L277.229 39.5635L273.974 41.8885L289.884 64.1625L293.139 61.8375ZM275.601 38.726H256.337V42.726H275.601V38.726ZM254.337 40.726V63H258.337V40.726H254.337ZM256.337 61H247.049V65H256.337V61ZM249.049 63V2.8H245.049V63H249.049ZM247.049 4.8H280.331V0.799996H247.049V4.8ZM280.331 4.8C283.433 4.8 286.273 5.54527 288.889 7.03258L290.866 3.55542C287.634 1.71739 284.11 0.799996 280.331 0.799996V4.8ZM288.929 7.05494C291.614 8.50048 293.735 10.472 295.325 12.9853L298.706 10.8467C296.741 7.74131 294.104 5.29819 290.826 3.53306L288.929 7.05494ZM295.351 13.0254C296.947 15.4187 297.767 18.2069 297.767 21.462H301.767C301.767 17.4931 300.753 13.9173 298.679 10.8066L295.351 13.0254ZM277.923 9.744H256.337V13.744H277.923V9.744ZM254.337 11.744V31.782H258.337V11.744H254.337ZM256.337 33.782H278.439V29.782H256.337V33.782ZM278.439 33.782C280.859 33.782 283.108 33.2559 285.143 32.1707L283.26 28.6413C281.855 29.3908 280.262 29.782 278.439 29.782V33.782ZM285.163 32.1596C287.197 31.0441 288.853 29.5711 290.079 27.7314L286.751 25.5126C285.914 26.7689 284.76 27.8185 283.24 28.6524L285.163 32.1596ZM290.098 27.7035C291.335 25.7786 291.963 23.655 291.963 21.376H287.963C287.963 22.881 287.56 24.2548 286.733 25.5405L290.098 27.7035ZM291.963 21.376C291.963 19.1132 291.281 17.0523 289.922 15.2638L286.737 17.6842C287.557 18.7624 287.963 19.9694 287.963 21.376H291.963ZM289.944 15.294C288.629 13.4939 286.875 12.1337 284.745 11.2017L283.142 14.8663C284.681 15.5396 285.851 16.4728 286.715 17.654L289.944 15.294ZM284.792 11.2231C282.672 10.2294 280.373 9.744 277.923 9.744V13.744C279.831 13.744 281.545 14.1186 283.095 14.8449L284.792 11.2231ZM385.368 2.714H387.368V0.713997H385.368V2.714ZM381.67 49.842L379.941 48.8372L379.936 48.846L379.931 48.8548L381.67 49.842ZM371.522 59.904L372.49 61.6545L372.498 61.6496L372.507 61.6447L371.522 59.904ZM340.992 59.904L340.007 61.6447L340.016 61.6496L340.025 61.6545L340.992 59.904ZM330.844 49.842L332.584 48.8548L332.584 48.8548L330.844 49.842ZM327.232 2.714V0.713997H325.232V2.714H327.232ZM336.52 2.714H338.52V0.713997H336.52V2.714ZM339.1 45.112L337.368 46.1114L337.379 46.1313L337.391 46.1508L339.1 45.112ZM346.238 51.992L345.264 53.7387L345.271 53.7427L345.278 53.7465L346.238 51.992ZM366.62 51.992L367.58 53.7465L367.58 53.7465L366.62 51.992ZM373.844 45.112L375.553 46.1508L375.558 46.1435L375.562 46.1361L373.844 45.112ZM376.51 2.714V0.713997H374.51V2.714H376.51ZM383.368 2.714V35.308H387.368V2.714H383.368ZM383.368 35.308C383.368 40.4415 382.21 44.9323 379.941 48.8372L383.4 50.8468C386.061 46.2663 387.368 41.0678 387.368 35.308H383.368ZM379.931 48.8548C377.706 52.7741 374.588 55.8713 370.537 58.1633L372.507 61.6447C377.171 59.006 380.818 55.3953 383.41 50.8292L379.931 48.8548ZM370.555 58.1535C366.539 60.3729 361.808 61.516 356.3 61.516V65.516C362.374 65.516 367.791 64.2511 372.49 61.6545L370.555 58.1535ZM356.3 61.516C350.731 61.516 345.973 60.3714 341.96 58.1535L340.025 61.6545C344.726 64.2526 350.173 65.516 356.3 65.516V61.516ZM341.977 58.1633C337.926 55.8713 334.808 52.7741 332.584 48.8548L329.105 50.8292C331.696 55.3953 335.344 59.006 340.007 61.6447L341.977 58.1633ZM332.584 48.8548C330.366 44.947 329.232 40.4498 329.232 35.308H325.232C325.232 41.0596 326.507 46.2517 329.105 50.8292L332.584 48.8548ZM329.232 35.308V2.714H325.232V35.308H329.232ZM327.232 4.714H336.52V0.713997H327.232V4.714ZM334.52 2.714V34.878H338.52V2.714H334.52ZM334.52 34.878C334.52 39.0285 335.453 42.7921 337.368 46.1114L340.833 44.1126C339.308 41.4693 338.52 38.4101 338.52 34.878H334.52ZM337.391 46.1508C339.348 49.3696 341.98 51.9072 345.264 53.7387L347.212 50.2453C344.534 48.7515 342.407 46.7024 340.809 44.0732L337.391 46.1508ZM345.278 53.7465C348.629 55.5798 352.316 56.486 356.3 56.486V52.486C352.946 52.486 349.925 51.7295 347.198 50.2375L345.278 53.7465ZM356.3 56.486C360.44 56.486 364.216 55.5873 367.58 53.7465L365.66 50.2375C362.947 51.7221 359.843 52.486 356.3 52.486V56.486ZM367.58 53.7465C370.923 51.9174 373.591 49.3789 375.553 46.1508L372.135 44.0732C370.543 46.6931 368.395 48.7413 365.66 50.2375L367.58 53.7465ZM375.562 46.1361C377.543 42.8128 378.51 39.0403 378.51 34.878H374.51C374.51 38.3983 373.7 41.4486 372.126 44.0879L375.562 46.1361ZM378.51 34.878V2.714H374.51V34.878H378.51ZM376.51 4.714H385.368V0.713997H376.51V4.714ZM463.577 25.246L461.946 24.0876L461.94 24.0961L463.577 25.246ZM456.869 30.148L456.151 28.2813L450.815 30.3336L456.266 32.0552L456.869 30.148ZM462.889 33.072L461.755 34.7201L461.767 34.7282L461.779 34.7361L462.889 33.072ZM467.361 37.974L465.603 38.9282L465.613 38.9473L465.624 38.9663L467.361 37.974ZM467.017 53.97L465.302 52.941L465.292 52.9569L465.283 52.9731L467.017 53.97ZM461.599 59.388L460.602 57.6542L460.592 57.6597L460.583 57.6653L461.599 59.388ZM454.117 62.226L454.493 64.1903L454.509 64.1873L454.524 64.184L454.117 62.226ZM412.751 63H410.751V65H412.751V63ZM412.751 2.8V0.799996H410.751V2.8H412.751ZM422.039 11.744V9.744H420.039V11.744H422.039ZM422.039 27.31H420.039V29.31H422.039V27.31ZM445.345 27.31V29.31H445.364L445.384 29.3096L445.345 27.31ZM453.085 25.246L454.101 26.9687L454.117 26.9592L454.133 26.9493L453.085 25.246ZM452.913 13.55L451.983 15.3208L452.009 15.3346L452.036 15.3475L452.913 13.55ZM422.039 36.34V34.34H420.039V36.34H422.039ZM422.039 54.056H420.039V56.056H422.039V54.056ZM455.837 51.906L456.825 53.6449L456.839 53.6365L456.854 53.6279L455.837 51.906ZM457.471 39.866L456.116 41.3379L456.133 41.3528L456.149 41.3674L457.471 39.866ZM452.139 37.114L452.611 35.1707L452.611 35.1707L452.139 37.114ZM444.055 4.8C451.097 4.8 456.061 6.06774 459.244 8.30606L461.545 5.03394C457.39 2.11225 451.46 0.799996 444.055 0.799996V4.8ZM459.244 8.30606C462.322 10.4701 463.899 13.581 463.899 17.936H467.899C467.899 12.4297 465.806 8.02988 461.545 5.03394L459.244 8.30606ZM463.899 17.936C463.899 20.2192 463.252 22.2503 461.946 24.0876L465.207 26.4044C466.997 23.8843 467.899 21.0421 467.899 17.936H463.899ZM461.94 24.0961C460.726 25.8243 458.848 27.2438 456.151 28.2813L457.587 32.0147C460.852 30.7588 463.446 28.9104 465.213 26.3959L461.94 24.0961ZM456.266 32.0552C458.261 32.6851 460.088 33.5738 461.755 34.7201L464.022 31.4239C462.02 30.0475 459.833 28.9869 457.471 28.2408L456.266 32.0552ZM461.779 34.7361C463.399 35.8163 464.668 37.2061 465.603 38.9282L469.118 37.0198C467.874 34.7285 466.162 32.8504 463.998 31.4079L461.779 34.7361ZM465.624 38.9663C466.561 40.6062 467.081 42.6826 467.081 45.284H471.081C471.081 42.1521 470.453 39.3551 469.097 36.9817L465.624 38.9663ZM467.081 45.284C467.081 48.5278 466.442 51.0402 465.302 52.941L468.732 54.999C470.343 52.3131 471.081 49.0349 471.081 45.284H467.081ZM465.283 52.9731C464.14 54.96 462.589 56.5117 460.602 57.6542L462.595 61.1218C465.195 59.627 467.256 57.5667 468.75 54.9669L465.283 52.9731ZM460.583 57.6653C458.55 58.8639 456.264 59.7356 453.709 60.268L454.524 64.184C457.473 63.5697 460.175 62.5494 462.615 61.1107L460.583 57.6653ZM453.74 60.2617C451.167 60.7544 448.599 61 446.033 61V65C448.856 65 451.676 64.7296 454.493 64.1903L453.74 60.2617ZM446.033 61H412.751V65H446.033V61ZM414.751 63V2.8H410.751V63H414.751ZM412.751 4.8H444.055V0.799996H412.751V4.8ZM444.313 9.744H422.039V13.744H444.313V9.744ZM420.039 11.744V27.31H424.039V11.744H420.039ZM422.039 29.31H445.345V25.31H422.039V29.31ZM445.384 29.3096C448.607 29.2464 451.532 28.4834 454.101 26.9687L452.069 23.5233C450.165 24.6459 447.93 25.2589 445.305 25.3104L445.384 29.3096ZM454.133 26.9493C456.931 25.2274 458.439 22.6489 458.439 19.398H454.439C454.439 21.1924 453.71 22.5126 452.036 23.5427L454.133 26.9493ZM458.439 19.398C458.439 17.7343 458.081 16.1851 457.27 14.8393C456.455 13.4874 455.258 12.469 453.789 11.7525L452.036 15.3475C452.917 15.7776 453.484 16.3073 453.844 16.9047C454.208 17.5083 454.439 18.3097 454.439 19.398H458.439ZM453.842 11.7792C451.184 10.3834 447.974 9.744 444.313 9.744V13.744C447.531 13.744 450.055 14.3086 451.983 15.3208L453.842 11.7792ZM445.775 34.34H422.039V38.34H445.775V34.34ZM420.039 36.34V54.056H424.039V36.34H420.039ZM422.039 56.056H446.205V52.056H422.039V56.056ZM446.205 56.056C450.335 56.056 453.915 55.2983 456.825 53.6449L454.849 50.1671C452.713 51.3804 449.871 52.056 446.205 52.056V56.056ZM456.854 53.6279C460.013 51.7613 461.621 48.8258 461.621 45.112H457.621C457.621 47.4755 456.706 49.0694 454.819 50.1841L456.854 53.6279ZM461.621 45.112C461.621 42.4096 460.732 40.0717 458.792 38.3646L456.149 41.3674C457.076 42.1829 457.621 43.3424 457.621 45.112H461.621ZM458.825 38.3941C457.113 36.8196 455.021 35.7568 452.611 35.1707L451.666 39.0573C453.499 39.5032 454.961 40.2751 456.116 41.3379L458.825 38.3941ZM452.611 35.1707C450.34 34.6181 448.06 34.34 445.775 34.34V38.34C447.732 38.34 449.695 38.5779 451.666 39.0573L452.611 35.1707Z" fill="#F2F2F2"/>
</svg>
