<svg width="474" height="51" viewBox="0 0 474 51" fill="none" xmlns="http://www.w3.org/2000/svg">
<path d="M37.496 3.904L36.9671 5.83282L36.975 5.83493L37.496 3.904ZM49.272 10.432L50.7605 11.7678L51.9415 10.4518L50.7802 9.11844L49.272 10.432ZM44.792 15.424L43.5389 16.9827L45.0153 18.1696L46.2805 16.7598L44.792 15.424ZM37.496 11.2L36.7225 13.0444L36.7404 13.0519L36.7583 13.059L37.496 11.2ZM12.024 17.408L13.6515 18.5705L13.6563 18.5637L13.6611 18.5569L12.024 17.408ZM11 32.768L9.21115 33.6624L9.21854 33.6772L9.22617 33.6919L11 32.768ZM15.288 37.888L14.0759 39.4789L14.0969 39.4949L14.1184 39.5104L15.288 37.888ZM21.432 40.896L20.854 42.8107L20.8638 42.8136L21.432 40.896ZM37.176 40.704L37.7798 42.6107L37.7942 42.6061L37.8085 42.6014L37.176 40.704ZM43.32 37.312L44.6715 38.7863L44.6733 38.7847L43.32 37.312ZM45.88 32.256L47.8756 32.389L48.0178 30.256H45.88V32.256ZM28.792 32.256H26.792V34.256H28.792V32.256ZM28.792 25.536V23.536H26.792V25.536H28.792ZM53.24 25.536L55.2128 25.2072L54.9342 23.536H53.24V25.536ZM53.432 27.136L51.4379 27.2894L51.4389 27.3021L53.432 27.136ZM52.408 35.264L50.5185 34.6085L50.5185 34.6085L52.408 35.264ZM49.528 40.512L48.003 39.218L47.9843 39.2401L47.9663 39.2626L49.528 40.512ZM40.888 46.528L41.6045 48.3953L41.616 48.3908L40.888 46.528ZM18.168 47.168L17.5434 49.068L17.5552 49.0718L17.567 49.0756L18.168 47.168ZM9.848 42.688L8.57852 44.2335L8.58522 44.239L8.59196 44.2444L9.848 42.688ZM4.216 16.64L6.00489 17.5344L6.01034 17.5234L4.216 16.64ZM9.912 9.408L11.2003 10.9378L11.2081 10.9313L11.2158 10.9246L9.912 9.408ZM28.92 4.816C31.8344 4.816 34.5133 5.15999 36.9671 5.83281L38.0249 1.97519C35.188 1.19734 32.1496 0.815998 28.92 0.815998V4.816ZM36.975 5.83493C39.5293 6.52421 41.7104 7.40328 43.5398 8.45421L45.5323 4.98579C43.351 3.73271 40.8387 2.73446 38.017 1.97306L36.975 5.83493ZM43.5398 8.45421C45.41 9.52863 46.7961 10.6344 47.7638 11.7456L50.7802 9.11844C49.4439 7.58426 47.6726 6.21536 45.5323 4.98579L43.5398 8.45421ZM47.7835 9.09618L43.3035 14.0882L46.2805 16.7598L50.7605 11.7678L47.7835 9.09618ZM46.0451 13.8652C43.7078 11.9862 41.1008 10.4788 38.2337 9.34101L36.7583 13.059C39.2672 14.0546 41.5242 15.3631 43.5389 16.9827L46.0451 13.8652ZM38.2695 9.35561C35.3622 8.13644 32.2385 7.536 28.92 7.536V11.536C31.7455 11.536 34.3391 12.0449 36.7225 13.0444L38.2695 9.35561ZM28.92 7.536C24.9894 7.536 21.3823 8.29167 18.1371 9.84373L19.8629 13.4523C22.5057 12.1883 25.5119 11.536 28.92 11.536V7.536ZM18.1371 9.84373C14.9143 11.3851 12.31 13.5187 10.3869 16.2591L13.6611 18.5569C15.1513 16.4333 17.1977 14.7269 19.8629 13.4523L18.1371 9.84373ZM10.3965 16.2455C8.43593 18.9904 7.464 22.1317 7.464 25.6H11.464C11.464 22.9243 12.1987 20.6043 13.6515 18.5705L10.3965 16.2455ZM7.464 25.6C7.464 28.5819 8.02401 31.2881 9.21115 33.6624L12.7889 31.8736C11.928 30.1519 11.464 28.0795 11.464 25.6H7.464ZM9.22617 33.6919C10.4252 35.9941 12.0439 37.9307 14.0759 39.4789L16.5001 36.2971C14.9481 35.1146 13.7081 33.6379 12.7738 31.8441L9.22617 33.6919ZM14.1184 39.5104C16.1406 40.9682 18.3901 42.0668 20.854 42.8107L22.01 38.9813C19.9512 38.3598 18.1047 37.4531 16.4576 36.2656L14.1184 39.5104ZM20.8638 42.8136C23.3577 43.5525 25.9387 43.92 28.6 43.92V39.92C26.3119 39.92 24.1143 39.6048 22.0002 38.9784L20.8638 42.8136ZM28.6 43.92C31.9271 43.92 34.9937 43.493 37.7798 42.6107L36.5722 38.7973C34.2383 39.5364 31.5875 39.92 28.6 39.92V43.92ZM37.8085 42.6014C40.5598 41.6843 42.8766 40.4315 44.6715 38.7863L41.9686 35.8377C40.6914 37.0085 38.9123 38.0171 36.5435 38.8066L37.8085 42.6014ZM44.6733 38.7847C46.5832 37.0296 47.7094 34.8817 47.8756 32.389L43.8844 32.123C43.7946 33.4703 43.2142 34.6931 41.9668 35.8393L44.6733 38.7847ZM45.88 30.256H28.792V34.256H45.88V30.256ZM30.792 32.256V25.536H26.792V32.256H30.792ZM28.792 27.536H53.24V23.536H28.792V27.536ZM51.2672 25.8648C51.3422 26.3147 51.3994 26.7893 51.4379 27.2894L55.4261 26.9826C55.3792 26.3733 55.3085 25.7813 55.2128 25.2072L51.2672 25.8648ZM51.4389 27.3021C51.477 27.759 51.496 28.2156 51.496 28.672H55.496C55.496 28.1044 55.4723 27.537 55.4251 26.9699L51.4389 27.3021ZM51.496 28.672C51.496 30.7621 51.1677 32.7372 50.5185 34.6085L54.2975 35.9195C55.099 33.6095 55.496 31.1899 55.496 28.672H51.496ZM50.5185 34.6085C49.8585 36.5108 49.0095 38.0318 48.003 39.218L51.053 41.806C52.4359 40.1762 53.5069 38.1985 54.2975 35.9195L50.5185 34.6085ZM47.9663 39.2626C46.1803 41.4951 43.6154 43.3148 40.16 44.6652L41.616 48.3908C45.5846 46.8398 48.7797 44.6489 51.0897 41.7614L47.9663 39.2626ZM40.1715 44.6608C36.778 45.9629 32.7632 46.64 28.088 46.64V50.64C33.1408 50.64 37.6593 49.9091 41.6045 48.3952L40.1715 44.6608ZM28.088 46.64C24.7787 46.64 21.6758 46.1763 18.769 45.2604L17.567 49.0756C20.8895 50.1224 24.4 50.64 28.088 50.64V46.64ZM18.7926 45.268C15.8961 44.3157 13.3389 42.9352 11.104 41.1316L8.59196 44.2444C11.2211 46.3661 14.2106 47.9723 17.5434 49.068L18.7926 45.268ZM11.1175 41.1425C8.96011 39.3704 7.26303 37.1951 6.02072 34.594L2.41128 36.318C3.89964 39.4342 5.95723 42.0802 8.57852 44.2335L11.1175 41.1425ZM6.02072 34.594C4.80422 32.047 4.168 29.0646 4.168 25.6H0.168C0.168 29.5594 0.897116 33.1477 2.41128 36.318L6.02072 34.594ZM4.168 25.6C4.168 22.648 4.78696 19.9702 6.00486 17.5344L2.42715 15.7456C0.914373 18.7711 0.168 22.0666 0.168 25.6H4.168ZM6.01034 17.5234C7.24998 15.0054 8.97366 12.8129 11.2003 10.9378L8.62373 7.87818C5.98635 10.0991 3.91269 12.728 2.42166 15.7566L6.01034 17.5234ZM11.2158 10.9246C13.4476 9.00607 16.0661 7.50415 19.0935 6.4286L17.7545 2.6594C14.2966 3.88785 11.2404 5.6286 8.60823 7.89136L11.2158 10.9246ZM19.0935 6.4286C22.1025 5.35962 25.3727 4.816 28.92 4.816V0.815998C24.958 0.815998 21.2308 1.42437 17.7545 2.6594L19.0935 6.4286ZM70.7475 3.2V1.2H68.7475V3.2H70.7475ZM106.14 3.2H108.14V1.2H106.14V3.2ZM106.14 9.856V11.856H108.14V9.856H106.14ZM77.6595 9.856V7.856H75.6595V9.856H77.6595ZM77.6595 21.696H75.6595V23.696H77.6595V21.696ZM102.62 21.696H104.62V19.696H102.62V21.696ZM102.62 28.352V30.352H104.62V28.352H102.62ZM77.6595 28.352V26.352H75.6595V28.352H77.6595ZM77.6595 41.344H75.6595V43.344H77.6595V41.344ZM106.14 41.344H108.14V39.344H106.14V41.344ZM106.14 48V50H108.14V48H106.14ZM70.7475 48H68.7475V50H70.7475V48ZM70.7475 5.2H106.14V1.2H70.7475V5.2ZM104.14 3.2V9.856H108.14V3.2H104.14ZM106.14 7.856H77.6595V11.856H106.14V7.856ZM75.6595 9.856V21.696H79.6595V9.856H75.6595ZM77.6595 23.696H102.62V19.696H77.6595V23.696ZM100.62 21.696V28.352H104.62V21.696H100.62ZM102.62 26.352H77.6595V30.352H102.62V26.352ZM75.6595 28.352V41.344H79.6595V28.352H75.6595ZM77.6595 43.344H106.14V39.344H77.6595V43.344ZM104.14 41.344V48H108.14V41.344H104.14ZM106.14 46H70.7475V50H106.14V46ZM72.7475 48V3.2H68.7475V48H72.7475ZM172.656 34.688L174.472 35.5261L174.477 35.5156L172.656 34.688ZM167.217 41.984L165.886 40.4907L165.879 40.4967L165.873 40.5029L167.217 41.984ZM158.961 46.912L159.646 48.7908L159.653 48.7883L159.66 48.7857L158.961 46.912ZM138.033 46.912L137.333 48.7857L137.344 48.7898L137.355 48.7938L138.033 46.912ZM129.777 41.984L131.12 40.5029L129.777 41.984ZM124.4 34.688L122.58 35.5156L122.585 35.5261L124.4 34.688ZM124.4 16.576L126.216 17.4141L126.221 17.4036L124.4 16.576ZM129.777 9.216L131.12 10.6971L129.777 9.216ZM138.033 4.352L138.71 6.23377L138.721 6.22979L138.732 6.22568L138.033 4.352ZM158.961 4.352L158.253 6.22257L158.268 6.22829L158.283 6.23377L158.961 4.352ZM167.217 9.216L165.873 10.6971L165.879 10.7033L165.886 10.7093L167.217 9.216ZM172.656 16.576L170.836 17.4036L170.841 17.4141L172.656 16.576ZM165.105 17.28L163.432 18.3761L163.436 18.3827L163.44 18.3894L165.105 17.28ZM158.385 11.456L157.479 13.2395L157.49 13.2449L157.501 13.2502L158.385 11.456ZM138.609 11.456L139.492 13.2502L139.503 13.2449L139.514 13.2395L138.609 11.456ZM131.889 17.28L130.216 16.1839L130.211 16.1911L131.889 17.28ZM131.889 33.984L130.202 35.0596L130.213 35.0766L130.224 35.0934L131.889 33.984ZM138.609 39.808L137.703 41.5915L137.714 41.5969L137.725 41.6022L138.609 39.808ZM158.385 39.808L159.268 41.6022L159.279 41.5969L159.29 41.5915L158.385 39.808ZM165.105 33.92L166.777 35.0161L165.105 33.92ZM172.577 25.6C172.577 28.5713 171.992 31.3168 170.836 33.8604L174.477 35.5156C175.881 32.4272 176.577 29.1141 176.577 25.6H172.577ZM170.841 33.8499C169.679 36.3665 168.034 38.5773 165.886 40.4907L168.547 43.4773C171.093 41.2093 173.074 38.5562 174.472 35.5261L170.841 33.8499ZM165.873 40.5029C163.774 42.407 161.247 43.9237 158.261 45.0383L159.66 48.7857C163.074 47.511 166.051 45.7423 168.56 43.4651L165.873 40.5029ZM158.275 45.0332C155.364 46.0953 152.122 46.64 148.529 46.64V50.64C152.53 50.64 156.242 50.0327 159.646 48.7908L158.275 45.0332ZM148.529 46.64C144.935 46.64 141.669 46.0954 138.71 45.0302L137.355 48.7938C140.796 50.0326 144.527 50.64 148.529 50.64V46.64ZM138.732 45.0383C135.746 43.9237 133.219 42.407 131.12 40.5029L128.433 43.4651C130.942 45.7423 133.919 47.511 137.333 48.7857L138.732 45.0383ZM131.12 40.5029C129.012 38.5892 127.382 36.3748 126.216 33.8499L122.585 35.5261C123.979 38.5479 125.933 41.1974 128.433 43.4651L131.12 40.5029ZM126.221 33.8604C125.065 31.3168 124.48 28.5713 124.48 25.6H120.48C120.48 29.1141 121.176 32.4272 122.58 35.5156L126.221 33.8604ZM124.48 25.6C124.48 22.6285 125.065 19.9087 126.216 17.4141L122.585 15.7379C121.176 18.79 120.48 22.0861 120.48 25.6H124.48ZM126.221 17.4036C127.388 14.8371 129.017 12.6058 131.12 10.6971L128.433 7.73488C125.928 10.0075 123.973 12.6829 122.58 15.7484L126.221 17.4036ZM131.12 10.6971C133.213 8.79809 135.733 7.30543 138.71 6.23377L137.355 2.47022C133.932 3.70257 130.948 5.45258 128.433 7.73488L131.12 10.6971ZM138.732 6.22568C141.685 5.12336 144.943 4.56 148.529 4.56V0.559998C144.519 0.559998 140.78 1.1913 137.333 2.47831L138.732 6.22568ZM148.529 4.56C152.114 4.56 155.348 5.12349 158.253 6.22257L159.668 2.48142C156.258 1.19118 152.538 0.559998 148.529 0.559998V4.56ZM158.283 6.23377C161.26 7.30543 163.78 8.79809 165.873 10.6971L168.56 7.73488C166.045 5.45258 163.061 3.70257 159.638 2.47022L158.283 6.23377ZM165.886 10.7093C168.028 12.6177 169.673 14.8454 170.836 17.4036L174.477 15.7484C173.08 12.6746 171.098 9.99562 168.547 7.72268L165.886 10.7093ZM170.841 17.4141C171.992 19.9087 172.577 22.6285 172.577 25.6H176.577C176.577 22.0861 175.881 18.79 174.472 15.7379L170.841 17.4141ZM169.536 25.6C169.536 22.1177 168.624 18.9531 166.769 16.1706L163.44 18.3894C164.828 20.4709 165.536 22.853 165.536 25.6H169.536ZM166.777 16.1839C164.945 13.3872 162.422 11.2152 159.268 9.66182L157.501 13.2502C160.064 14.5128 162.021 16.2235 163.432 18.3761L166.777 16.1839ZM159.29 9.6725C156.109 8.05858 152.505 7.28 148.529 7.28V11.28C151.976 11.28 154.942 11.9521 157.479 13.2395L159.29 9.6725ZM148.529 7.28C144.513 7.28 140.887 8.05702 137.703 9.6725L139.514 13.2395C142.047 11.9536 145.035 11.28 148.529 11.28V7.28ZM137.725 9.66182C134.571 11.2152 132.048 13.3872 130.216 16.1839L133.561 18.3761C134.972 16.2235 136.929 14.5128 139.492 13.2502L137.725 9.66182ZM130.211 16.1911C128.406 18.9715 127.521 22.1288 127.521 25.6H131.521C131.521 22.8419 132.214 20.4525 133.566 18.3689L130.211 16.1911ZM127.521 25.6C127.521 29.0714 128.406 32.2437 130.202 35.0596L133.575 32.9084C132.214 30.775 131.521 28.3579 131.521 25.6H127.521ZM130.224 35.0934C132.055 37.8388 134.568 40.0006 137.703 41.5915L139.514 38.0245C136.931 36.7141 134.965 34.9932 133.553 32.8746L130.224 35.0934ZM137.725 41.6022C140.903 43.1677 144.522 43.92 148.529 43.92V39.92C145.026 39.92 142.031 39.2643 139.492 38.0138L137.725 41.6022ZM148.529 43.92C152.497 43.92 156.093 43.1662 159.268 41.6022L157.501 38.0138C154.959 39.2658 151.984 39.92 148.529 39.92V43.92ZM159.29 41.5915C162.433 39.9963 164.949 37.8072 166.777 35.0161L163.432 32.8239C162.018 34.9821 160.053 36.7183 157.479 38.0245L159.29 41.5915ZM166.777 35.0161C168.621 32.2027 169.536 29.0456 169.536 25.6H165.536C165.536 28.2984 164.831 30.688 163.432 32.8239L166.777 35.0161ZM199.094 3.2L200.68 1.98099L200.079 1.2H199.094V3.2ZM217.398 27.008L215.812 28.227L217.395 30.2858L218.982 28.2297L217.398 27.008ZM235.766 3.2V1.2H234.783L234.182 1.97831L235.766 3.2ZM242.422 3.2H244.422V1.2H242.422V3.2ZM242.422 48V50H244.422V48H242.422ZM235.51 48H233.51V50H235.51V48ZM235.638 21.248L233.641 21.1447L233.64 21.1619L233.639 21.1791L235.638 21.248ZM236.278 13.824L238.264 14.0636L239.116 7.0043L234.708 12.5844L236.278 13.824ZM219.446 35.136V37.136H220.415L221.016 36.3756L219.446 35.136ZM215.222 35.136L213.648 36.3698L214.248 37.136H215.222V35.136ZM198.518 13.824L200.092 12.5902L195.674 6.95374L196.532 14.0636L198.518 13.824ZM199.094 21.248L201.093 21.1791V21.1791L199.094 21.248ZM199.222 48V50H201.222V48H199.222ZM192.31 48H190.31V50H192.31V48ZM192.31 3.2V1.2H190.31V3.2H192.31ZM197.508 4.41901L215.812 28.227L218.984 25.789L200.68 1.98099L197.508 4.41901ZM218.982 28.2297L237.35 4.42168L234.182 1.97831L215.814 25.7863L218.982 28.2297ZM235.766 5.2H242.422V1.2H235.766V5.2ZM240.422 3.2V48H244.422V3.2H240.422ZM242.422 46H235.51V50H242.422V46ZM237.51 48V29.12H233.51V48H237.51ZM237.51 29.12C237.51 26.367 237.552 23.7661 237.637 21.3169L233.639 21.1791C233.553 23.6792 233.51 26.3264 233.51 29.12H237.51ZM237.635 21.3513C237.761 18.9225 237.97 16.4933 238.264 14.0636L234.292 13.5844C233.988 16.1041 233.771 18.6242 233.641 21.1447L237.635 21.3513ZM234.708 12.5844L217.876 33.8964L221.016 36.3756L237.848 15.0636L234.708 12.5844ZM219.446 33.136H215.222V37.136H219.446V33.136ZM216.796 33.9022L200.092 12.5902L196.944 15.0578L213.648 36.3698L216.796 33.9022ZM196.532 14.0636C196.824 16.482 197.012 18.8997 197.095 21.3169L201.093 21.1791C201.005 18.647 200.809 16.1153 200.504 13.5844L196.532 14.0636ZM197.095 21.3169C197.18 23.7661 197.222 26.367 197.222 29.12H201.222C201.222 26.3264 201.179 23.6792 201.093 21.1791L197.095 21.3169ZM197.222 29.12V48H201.222V29.12H197.222ZM199.222 46H192.31V50H199.222V46ZM194.31 48V3.2H190.31V48H194.31ZM192.31 5.2H199.094V1.2H192.31V5.2ZM263.622 3.2V1.2H261.622V3.2H263.622ZM299.014 3.2H301.014V1.2H299.014V3.2ZM299.014 9.856V11.856H301.014V9.856H299.014ZM270.534 9.856V7.856H268.534V9.856H270.534ZM270.534 21.696H268.534V23.696H270.534V21.696ZM295.495 21.696H297.495V19.696H295.495V21.696ZM295.495 28.352V30.352H297.495V28.352H295.495ZM270.534 28.352V26.352H268.534V28.352H270.534ZM270.534 41.344H268.534V43.344H270.534V41.344ZM299.014 41.344H301.014V39.344H299.014V41.344ZM299.014 48V50H301.014V48H299.014ZM263.622 48H261.622V50H263.622V48ZM263.622 5.2H299.014V1.2H263.622V5.2ZM297.014 3.2V9.856H301.014V3.2H297.014ZM299.014 7.856H270.534V11.856H299.014V7.856ZM268.534 9.856V21.696H272.534V9.856H268.534ZM270.534 23.696H295.495V19.696H270.534V23.696ZM293.495 21.696V28.352H297.495V21.696H293.495ZM295.495 26.352H270.534V30.352H295.495V26.352ZM268.534 28.352V41.344H272.534V28.352H268.534ZM270.534 43.344H299.014V39.344H270.534V43.344ZM297.014 41.344V48H301.014V41.344H297.014ZM299.014 46H263.622V50H299.014V46ZM265.622 48V3.2H261.622V48H265.622ZM329.884 48H327.884V50H329.884V48ZM329.884 9.856H331.884V7.856H329.884V9.856ZM313.755 9.856H311.755V11.856H313.755V9.856ZM313.755 3.2V1.2H311.755V3.2H313.755ZM353.307 3.2H355.307V1.2H353.307V3.2ZM353.307 9.856V11.856H355.307V9.856H353.307ZM336.796 9.856V7.856H334.796V9.856H336.796ZM336.796 48V50H338.796V48H336.796ZM331.884 48V9.856H327.884V48H331.884ZM329.884 7.856H313.755V11.856H329.884V7.856ZM315.755 9.856V3.2H311.755V9.856H315.755ZM313.755 5.2H353.307V1.2H313.755V5.2ZM351.307 3.2V9.856H355.307V3.2H351.307ZM353.307 7.856H336.796V11.856H353.307V7.856ZM334.796 9.856V48H338.796V9.856H334.796ZM336.796 46H329.884V50H336.796V46ZM407.323 22.848L405.534 21.9536L405.526 21.9708L405.517 21.9881L407.323 22.848ZM403.739 27.52L402.434 26.0045L403.739 27.52ZM398.491 30.528L397.834 28.639L395.303 29.5195L396.867 31.6955L398.491 30.528ZM411.099 48.064L411.084 50.0639L415.021 50.0933L412.723 46.8965L411.099 48.064ZM402.523 48L400.896 49.1625L401.488 49.9923L402.508 49.9999L402.523 48ZM390.683 31.424L392.31 30.2615L391.712 29.424H390.683V31.424ZM376.347 31.424V29.424H374.347V31.424H376.347ZM376.347 48V50H378.347V48H376.347ZM369.435 48H367.435V50H369.435V48ZM369.435 3.2V1.2H367.435V3.2H369.435ZM401.307 5.056L400.318 6.79458L400.338 6.80599L400.359 6.81694L401.307 5.056ZM406.619 9.984L404.929 11.0533L404.942 11.0735L404.955 11.0934L406.619 9.984ZM376.347 9.856V7.856H374.347V9.856H376.347ZM376.347 24.768H374.347V26.768H376.347V24.768ZM397.083 23.744L398.024 25.5087L398.034 25.5032L398.045 25.4976L397.083 23.744ZM400.219 20.928L401.883 22.0374L401.892 22.0235L401.901 22.0095L400.219 20.928ZM400.155 13.376L398.54 14.556L398.551 14.5712L398.563 14.5862L400.155 13.376ZM396.891 10.816L396.042 12.6269L396.066 12.6379L396.089 12.6483L396.891 10.816ZM406.667 17.088C406.667 18.8326 406.288 20.4456 405.534 21.9536L409.112 23.7424C410.15 21.6664 410.667 19.4394 410.667 17.088H406.667ZM405.517 21.9881C404.786 23.5237 403.764 24.8592 402.434 26.0045L405.044 29.0355C406.786 27.5354 408.153 25.7563 409.129 23.7079L405.517 21.9881ZM402.434 26.0045C401.093 27.1588 399.565 28.0368 397.834 28.639L399.148 32.417C401.342 31.6538 403.313 30.5265 405.044 29.0355L402.434 26.0045ZM396.867 31.6955L409.475 49.2315L412.723 46.8965L400.115 29.3605L396.867 31.6955ZM411.114 46.0641L402.538 46.0001L402.508 49.9999L411.084 50.0639L411.114 46.0641ZM404.15 46.8375L392.31 30.2615L389.056 32.5865L400.896 49.1625L404.15 46.8375ZM390.683 29.424H376.347V33.424H390.683V29.424ZM374.347 31.424V48H378.347V31.424H374.347ZM376.347 46H369.435V50H376.347V46ZM371.435 48V3.2H367.435V48H371.435ZM369.435 5.2H394.203V1.2H369.435V5.2ZM394.203 5.2C396.425 5.2 398.451 5.7326 400.318 6.79458L402.296 3.31742C399.811 1.90473 397.101 1.2 394.203 1.2V5.2ZM400.359 6.81694C402.281 7.85181 403.793 9.25869 404.929 11.0533L408.309 8.91471C406.799 6.52798 404.771 4.64952 402.255 3.29506L400.359 6.81694ZM404.955 11.0934C406.081 12.7827 406.667 14.7569 406.667 17.088H410.667C410.667 14.0431 409.888 11.2813 408.283 8.8746L404.955 11.0934ZM392.411 7.856H376.347V11.856H392.411V7.856ZM374.347 9.856V24.768H378.347V9.856H374.347ZM376.347 26.768H392.795V22.768H376.347V26.768ZM392.795 26.768C394.672 26.768 396.429 26.3592 398.024 25.5087L396.142 21.9793C395.177 22.4941 394.075 22.768 392.795 22.768V26.768ZM398.045 25.4976C399.624 24.6315 400.921 23.4811 401.883 22.0374L398.555 19.8186C397.981 20.6789 397.187 21.4059 396.121 21.9904L398.045 25.4976ZM401.901 22.0095C402.875 20.4952 403.371 18.819 403.371 17.024H399.371C399.371 18.045 399.099 18.9714 398.537 19.8465L401.901 22.0095ZM403.371 17.024C403.371 15.2306 402.828 13.5876 401.747 12.1658L398.563 14.5862C399.103 15.2977 399.371 16.0868 399.371 17.024H403.371ZM401.77 12.196C400.733 10.7772 399.354 9.71036 397.693 8.98368L396.089 12.6483C397.159 13.1163 397.956 13.7561 398.54 14.556L401.77 12.196ZM397.74 9.00508C396.089 8.23136 394.303 7.856 392.411 7.856V11.856C393.761 11.856 394.962 12.1206 396.042 12.6269L397.74 9.00508ZM469.751 3.2L471.346 4.40662L473.772 1.2H469.751V3.2ZM449.271 30.272L447.676 29.0654L447.271 29.6007V30.272H449.271ZM449.271 48V50H451.271V48H449.271ZM442.359 48H440.359V50H442.359V48ZM442.359 30.656H444.359V29.9596L443.926 29.4137L442.359 30.656ZM420.599 3.2V1.2H416.462L419.032 4.44225L420.599 3.2ZM429.943 3.2L431.536 1.99069L430.936 1.2H429.943V3.2ZM445.879 24.192L444.286 25.4013L445.905 27.5341L447.491 25.3762L445.879 24.192ZM461.303 3.2V1.2H460.291L459.691 2.01578L461.303 3.2ZM468.156 1.99337L447.676 29.0654L450.866 31.4786L471.346 4.40662L468.156 1.99337ZM447.271 30.272V48H451.271V30.272H447.271ZM449.271 46H442.359V50H449.271V46ZM444.359 48V30.656H440.359V48H444.359ZM443.926 29.4137L422.166 1.95775L419.032 4.44225L440.792 31.8982L443.926 29.4137ZM420.599 5.2H429.943V1.2H420.599V5.2ZM428.35 4.4093L444.286 25.4013L447.472 22.9827L431.536 1.99069L428.35 4.4093ZM447.491 25.3762L462.915 4.38421L459.691 2.01578L444.267 23.0078L447.491 25.3762ZM461.303 5.2H469.751V1.2H461.303V5.2Z" fill="#F2F2F2"/>
</svg>
