<svg width="485" height="48" viewBox="0 0 485 48" fill="none" xmlns="http://www.w3.org/2000/svg">
<path d="M35.84 3.66L35.3111 5.58882L35.319 5.59094L35.84 3.66ZM46.88 9.78L48.3685 11.1158L49.5495 9.79983L48.3882 8.46644L46.88 9.78ZM42.68 14.46L41.4269 16.0188L42.9033 17.2056L44.1685 15.7958L42.68 14.46ZM35.84 10.5L35.0665 12.3444L35.0844 12.3519L35.1023 12.359L35.84 10.5ZM11.96 16.32L13.5875 17.4825L13.5923 17.4757L13.5971 17.4689L11.96 16.32ZM11 30.72L9.21115 31.6144L9.21854 31.6292L9.22617 31.6439L11 30.72ZM15.02 35.52L13.8079 37.1109L13.8289 37.1269L13.8504 37.1424L15.02 35.52ZM20.78 38.34L20.202 40.2547L20.2118 40.2576L20.78 38.34ZM35.54 38.16L36.1438 40.0667L36.1582 40.0621L36.1725 40.0574L35.54 38.16ZM41.3 34.98L42.6515 36.4543L42.6533 36.4527L41.3 34.98ZM43.7 30.24L45.6956 30.373L45.8378 28.24H43.7V30.24ZM27.68 30.24H25.68V32.24H27.68V30.24ZM27.68 23.94V21.94H25.68V23.94H27.68ZM50.6 23.94L52.5728 23.6112L52.2943 21.94H50.6V23.94ZM50.78 25.44L48.7859 25.5934L48.7869 25.6061L50.78 25.44ZM49.82 33.06L47.9305 32.4045L47.9305 32.4045L49.82 33.06ZM47.12 37.98L45.595 36.686L45.5763 36.7081L45.5583 36.7306L47.12 37.98ZM39.02 43.62L39.7365 45.4873L39.748 45.4828L39.02 43.62ZM17.72 44.22L17.0954 46.12L17.1072 46.1238L17.119 46.1276L17.72 44.22ZM9.92 40.02L8.65052 41.5655L8.65722 41.571L8.66396 41.5764L9.92 40.02ZM4.64 15.6L6.42889 16.4944L6.43434 16.4834L4.64 15.6ZM9.98 8.82L11.2683 10.3498L11.2761 10.3433L11.2838 10.3366L9.98 8.82ZM27.8 4.64C30.5224 4.64 33.0227 4.96132 35.3111 5.58881L36.3689 1.73119C33.6973 0.998676 30.8376 0.639998 27.8 0.639998V4.64ZM35.319 5.59094C37.7053 6.23487 39.7397 7.05528 41.4438 8.03421L43.4363 4.56579C41.3803 3.38471 39.0147 2.44512 36.361 1.72906L35.319 5.59094ZM41.4438 8.03421C43.1887 9.03663 44.4761 10.0651 45.3718 11.0936L48.3882 8.46644C47.1239 7.01493 45.4513 5.72336 43.4363 4.56579L41.4438 8.03421ZM45.3915 8.44418L41.1915 13.1242L44.1685 15.7958L48.3685 11.1158L45.3915 8.44418ZM43.9331 12.9012C41.7318 11.1315 39.2768 9.71211 36.5777 8.64102L35.1023 12.359C37.4432 13.2879 39.5482 14.5085 41.4269 16.0188L43.9331 12.9012ZM36.6135 8.65561C33.8715 7.50577 30.9265 6.94 27.8 6.94V10.94C30.4335 10.94 32.8485 11.4142 35.0665 12.3444L36.6135 8.65561ZM27.8 6.94C24.0987 6.94 20.6983 7.65167 17.6371 9.11573L19.3629 12.7243C21.8217 11.5483 24.6213 10.94 27.8 10.94V6.94ZM17.6371 9.11573C14.5983 10.5691 12.1393 12.5827 10.3229 15.1711L13.5971 17.4689C14.9807 15.4973 16.8817 13.9109 19.3629 12.7243L17.6371 9.11573ZM10.3325 15.1575C8.4786 17.753 7.56 20.7237 7.56 24H11.56C11.56 21.5163 12.2414 19.367 13.5875 17.4825L10.3325 15.1575ZM7.56 24C7.56 26.8112 8.08801 29.3681 9.21115 31.6144L12.7889 29.8256C11.992 28.2319 11.56 26.3088 11.56 24H7.56ZM9.22617 31.6439C10.3586 33.8181 11.8879 35.648 13.8079 37.1109L16.2321 33.9291C14.7921 32.832 13.6414 31.4619 12.7738 29.7961L9.22617 31.6439ZM13.8504 37.1424C15.7579 38.5175 17.8795 39.5535 20.202 40.2547L21.358 36.4253C19.4405 35.8465 17.7221 35.0024 16.1896 33.8976L13.8504 37.1424ZM20.2118 40.2576C22.5617 40.9539 24.9934 41.3 27.5 41.3V37.3C25.3666 37.3 23.3183 37.0061 21.3482 36.4224L20.2118 40.2576ZM27.5 41.3C30.6298 41.3 33.5177 40.8983 36.1438 40.0667L34.9362 36.2533C32.7623 36.9417 30.2902 37.3 27.5 37.3V41.3ZM36.1725 40.0574C38.7638 39.1936 40.9526 38.0115 42.6515 36.4543L39.9486 33.5057C38.7674 34.5885 37.1163 35.5264 34.9075 36.2626L36.1725 40.0574ZM42.6533 36.4527C44.4645 34.7883 45.5374 32.7457 45.6956 30.373L41.7044 30.107C41.6226 31.3343 41.0955 32.4517 39.9468 33.5073L42.6533 36.4527ZM43.7 28.24H27.68V32.24H43.7V28.24ZM29.68 30.24V23.94H25.68V30.24H29.68ZM27.68 25.94H50.6V21.94H27.68V25.94ZM48.6272 24.2688C48.6969 24.6867 48.7501 25.128 48.7859 25.5934L52.7741 25.2866C52.7299 24.712 52.6631 24.1533 52.5728 23.6112L48.6272 24.2688ZM48.7869 25.6061C48.8223 26.031 48.84 26.4556 48.84 26.88H52.84C52.84 26.3444 52.8177 25.809 52.7731 25.2739L48.7869 25.6061ZM48.84 26.88C48.84 28.8261 48.5344 30.6639 47.9305 32.4045L51.7095 33.7155C52.4656 31.5361 52.84 29.2539 52.84 26.88H48.84ZM47.9305 32.4045C47.3158 34.1762 46.5268 35.5878 45.595 36.686L48.645 39.274C49.9532 37.7322 50.9642 35.8638 51.7095 33.7155L47.9305 32.4045ZM45.5583 36.7306C43.9003 38.8031 41.5154 40.4975 38.292 41.7572L39.748 45.4828C43.4846 44.0225 46.4997 41.9569 48.6817 39.2294L45.5583 36.7306ZM38.3035 41.7527C35.1393 42.9669 31.3912 43.6 27.02 43.6V47.6C31.7688 47.6 36.0207 46.9131 39.7365 45.4873L38.3035 41.7527ZM27.02 43.6C23.9293 43.6 21.0332 43.167 18.321 42.3124L17.119 46.1276C20.2468 47.113 23.5507 47.6 27.02 47.6V43.6ZM18.3446 42.32C15.6427 41.4317 13.2589 40.1445 11.176 38.4636L8.66396 41.5764C11.1411 43.5755 13.9573 45.0883 17.0954 46.12L18.3446 42.32ZM11.1895 38.4745C9.18144 36.8251 7.6017 34.8005 6.44472 32.378L2.83528 34.102C4.2383 37.0395 6.17856 39.5349 8.65052 41.5655L11.1895 38.4745ZM6.44472 32.378C5.31355 30.0096 4.72 27.2326 4.72 24H0.72C0.72 27.7274 1.40645 31.1104 2.83528 34.102L6.44472 32.378ZM4.72 24C4.72 21.2507 5.29629 18.7595 6.42885 16.4944L2.85115 14.7056C1.42371 17.5605 0.72 20.6693 0.72 24H4.72ZM6.43434 16.4834C7.58864 14.1387 9.19366 12.0969 11.2683 10.3498L8.69173 7.29018C6.20635 9.38313 4.25136 11.8613 2.84566 14.7166L6.43434 16.4834ZM11.2838 10.3366C13.3636 8.54873 15.8047 7.14815 18.6295 6.1446L17.2905 2.3754C14.0353 3.53185 11.1564 5.17126 8.67623 7.30336L11.2838 10.3366ZM18.6295 6.1446C21.4358 5.14762 24.4874 4.64 27.8 4.64V0.639998C24.0726 0.639998 20.5642 1.21237 17.2905 2.3754L18.6295 6.1446ZM110.873 32.52L112.689 33.3581L112.694 33.3476L110.873 32.52ZM105.773 39.36L104.443 37.8667L104.436 37.8727L104.429 37.8789L105.773 39.36ZM98.0333 43.98L98.7188 45.8588L98.7258 45.8563L98.7328 45.8537L98.0333 43.98ZM78.4133 43.98L77.7138 45.8537L77.7248 45.8578L77.7358 45.8618L78.4133 43.98ZM70.6733 39.36L72.0173 37.8789L72.0173 37.8789L70.6733 39.36ZM65.6333 32.52L63.8125 33.3476L63.8174 33.3581L65.6333 32.52ZM65.6333 15.54L67.4492 16.3781L67.454 16.3676L65.6333 15.54ZM70.6733 8.64L72.0173 10.1211L72.0173 10.1211L70.6733 8.64ZM78.4133 4.08L79.0907 5.96177L79.1018 5.95779L79.1128 5.95368L78.4133 4.08ZM98.0333 4.08L97.3255 5.95057L97.3406 5.95629L97.3558 5.96177L98.0333 4.08ZM105.773 8.64L104.429 10.1211L104.436 10.1273L104.443 10.1333L105.773 8.64ZM110.873 15.54L109.053 16.3676L109.057 16.3781L110.873 15.54ZM103.793 16.2L102.12 17.2961L102.125 17.3027L102.129 17.3094L103.793 16.2ZM97.4933 10.74L96.5882 12.5235L96.5989 12.5289L96.6096 12.5342L97.4933 10.74ZM78.9533 10.74L79.837 12.5342L79.8477 12.5289L79.8583 12.5235L78.9533 10.74ZM72.6533 16.2L70.9803 15.1039L70.9757 15.1111L72.6533 16.2ZM72.6533 31.86L70.9672 32.9356L70.978 32.9526L70.9892 32.9694L72.6533 31.86ZM78.9533 37.32L78.0482 39.1035L78.0589 39.1089L78.0696 39.1142L78.9533 37.32ZM97.4933 37.32L98.377 39.1142L98.3877 39.1089L98.3983 39.1035L97.4933 37.32ZM103.793 31.8L105.466 32.8961L105.466 32.8961L103.793 31.8ZM110.673 24C110.673 26.7686 110.129 29.3248 109.053 31.6924L112.694 33.3476C114.018 30.4352 114.673 27.3114 114.673 24H110.673ZM109.057 31.6819C107.976 34.0252 106.444 36.084 104.443 37.8667L107.104 40.8533C109.503 38.716 111.371 36.2148 112.689 33.3581L109.057 31.6819ZM104.429 37.8789C102.475 39.6523 100.119 41.0664 97.3338 42.1063L98.7328 45.8537C101.947 44.6536 104.752 42.9877 107.117 40.8411L104.429 37.8789ZM97.3478 42.1012C94.634 43.0913 91.6095 43.6 88.2533 43.6V47.6C92.0171 47.6 95.5126 47.0287 98.7188 45.8588L97.3478 42.1012ZM88.2533 43.6C84.8975 43.6 81.8496 43.0914 79.0907 42.0982L77.7358 45.8618C80.9769 47.0286 84.4891 47.6 88.2533 47.6V43.6ZM79.1128 42.1063C76.3272 41.0664 73.9717 39.6523 72.0173 37.8789L69.3293 40.8411C71.6949 42.9877 74.4993 44.6536 77.7138 45.8537L79.1128 42.1063ZM72.0173 37.8789C70.0524 36.0959 68.5345 34.0334 67.4492 31.6819L63.8174 33.3581C65.132 36.2066 66.9742 38.7041 69.3293 40.8411L72.0173 37.8789ZM67.454 31.6924C66.3779 29.3248 65.8333 26.7686 65.8333 24H61.8333C61.8333 27.3114 62.4887 30.4352 63.8125 33.3476L67.454 31.6924ZM65.8333 24C65.8333 21.2312 66.3779 18.6993 67.4492 16.3781L63.8174 14.7019C62.4887 17.5807 61.8333 20.6888 61.8333 24H65.8333ZM67.454 16.3676C68.5406 13.9771 70.0578 11.8991 72.0173 10.1211L69.3293 7.15888C66.9687 9.30088 65.126 11.8229 63.8125 14.7124L67.454 16.3676ZM72.0173 10.1211C73.9661 8.35276 76.3139 6.96143 79.0907 5.96177L77.7358 2.19822C74.5127 3.35857 71.7005 5.00724 69.3293 7.15888L72.0173 10.1211ZM79.1128 5.95368C81.8654 4.92603 84.9056 4.4 88.2533 4.4V0.399998C84.481 0.399998 80.9611 0.993964 77.7138 2.20631L79.1128 5.95368ZM88.2533 4.4C91.6015 4.4 94.6181 4.92615 97.3255 5.95057L98.7411 2.20942C95.5285 0.993844 92.0251 0.399998 88.2533 0.399998V4.4ZM97.3558 5.96177C100.133 6.96143 102.48 8.35276 104.429 10.1211L107.117 7.15888C104.746 5.00724 101.934 3.35857 98.7107 2.19822L97.3558 5.96177ZM104.443 10.1333C106.438 11.911 107.97 13.9854 109.053 16.3676L112.694 14.7124C111.377 11.8146 109.508 9.28895 107.104 7.14668L104.443 10.1333ZM109.057 16.3781C110.129 18.6993 110.673 21.2312 110.673 24H114.673C114.673 20.6888 114.018 17.5807 112.689 14.7019L109.057 16.3781ZM108.073 24C108.073 20.7124 107.211 17.7211 105.457 15.0906L102.129 17.3094C103.416 19.2389 104.073 21.4476 104.073 24H108.073ZM105.466 15.1039C103.735 12.4619 101.352 10.4112 98.377 8.94582L96.6096 12.5342C98.9944 13.7088 100.811 15.2981 102.12 17.2961L105.466 15.1039ZM98.3983 8.9565C95.3966 7.43325 91.998 6.7 88.2533 6.7V10.7C91.4685 10.7 94.2299 11.3267 96.5882 12.5235L98.3983 8.9565ZM88.2533 6.7C84.4725 6.7 81.053 7.43169 78.0482 8.9565L79.8583 12.5235C82.2136 11.3283 84.994 10.7 88.2533 10.7V6.7ZM78.0696 8.94582C75.0944 10.4112 72.7114 12.4619 70.9804 15.1039L74.3262 17.2961C75.6352 15.2981 77.4521 13.7088 79.837 12.5342L78.0696 8.94582ZM70.9757 15.1111C69.2695 17.7395 68.4333 20.7235 68.4333 24H72.4333C72.4333 21.4365 73.077 19.2205 74.3308 17.2889L70.9757 15.1111ZM68.4333 24C68.4333 27.2767 69.2695 30.2744 70.9672 32.9356L74.3394 30.7844C73.0771 28.8056 72.4333 26.5633 72.4333 24H68.4333ZM70.9892 32.9694C72.7181 35.5628 75.0919 37.6033 78.0482 39.1035L79.8583 35.5365C77.4547 34.3167 75.6285 32.7172 74.3174 30.7506L70.9892 32.9694ZM78.0696 39.1142C81.0694 40.5917 84.4812 41.3 88.2533 41.3V37.3C84.9854 37.3 82.1972 36.6883 79.837 35.5258L78.0696 39.1142ZM88.2533 41.3C91.9893 41.3 95.3802 40.5902 98.377 39.1142L96.6096 35.5258C94.2464 36.6898 91.4772 37.3 88.2533 37.3V41.3ZM98.3983 39.1035C101.363 37.599 103.739 35.5325 105.466 32.8961L102.12 30.7039C100.808 32.7075 98.9835 34.321 96.5882 35.5365L98.3983 39.1035ZM105.466 32.8961C107.208 30.2374 108.073 27.2536 108.073 24H104.073C104.073 26.5064 103.418 28.7226 102.12 30.7039L105.466 32.8961ZM173.158 32.52L174.974 33.3581L174.979 33.3476L173.158 32.52ZM168.058 39.36L166.728 37.8667L166.721 37.8727L166.714 37.8789L168.058 39.36ZM160.318 43.98L161.004 45.8588L161.011 45.8563L161.018 45.8537L160.318 43.98ZM140.698 43.98L139.999 45.8537L140.01 45.8578L140.021 45.8618L140.698 43.98ZM132.958 39.36L134.302 37.8789L134.302 37.8789L132.958 39.36ZM127.918 32.52L126.098 33.3476L126.103 33.3581L127.918 32.52ZM127.918 15.54L129.734 16.3781L129.739 16.3676L127.918 15.54ZM132.958 8.64L134.302 10.1211L134.302 10.1211L132.958 8.64ZM140.698 4.08L141.376 5.96177L141.387 5.95779L141.398 5.95368L140.698 4.08ZM160.318 4.08L159.611 5.95057L159.626 5.95629L159.641 5.96177L160.318 4.08ZM168.058 8.64L166.714 10.1211L166.721 10.1273L166.728 10.1333L168.058 8.64ZM173.158 15.54L171.338 16.3676L171.343 16.3781L173.158 15.54ZM166.078 16.2L164.406 17.2961L164.41 17.3027L164.414 17.3094L166.078 16.2ZM159.778 10.74L158.873 12.5235L158.884 12.5289L158.895 12.5342L159.778 10.74ZM141.238 10.74L142.122 12.5342L142.133 12.5289L142.143 12.5235L141.238 10.74ZM134.938 16.2L133.266 15.1039L133.261 15.1111L134.938 16.2ZM134.938 31.86L133.252 32.9356L133.263 32.9526L133.274 32.9694L134.938 31.86ZM141.238 37.32L140.333 39.1035L140.344 39.1089L140.355 39.1142L141.238 37.32ZM159.778 37.32L160.662 39.1142L160.673 39.1089L160.683 39.1035L159.778 37.32ZM166.078 31.8L167.751 32.8961L167.751 32.8961L166.078 31.8ZM172.958 24C172.958 26.7686 172.414 29.3248 171.338 31.6924L174.979 33.3476C176.303 30.4352 176.958 27.3114 176.958 24H172.958ZM171.343 31.6819C170.261 34.0252 168.729 36.084 166.728 37.8667L169.389 40.8533C171.788 38.716 173.656 36.2148 174.974 33.3581L171.343 31.6819ZM166.714 37.8789C164.76 39.6523 162.404 41.0664 159.619 42.1063L161.018 45.8537C164.232 44.6536 167.037 42.9877 169.402 40.8411L166.714 37.8789ZM159.633 42.1012C156.919 43.0913 153.895 43.6 150.538 43.6V47.6C154.302 47.6 157.798 47.0287 161.004 45.8588L159.633 42.1012ZM150.538 43.6C147.183 43.6 144.135 43.0914 141.376 42.0982L140.021 45.8618C143.262 47.0286 146.774 47.6 150.538 47.6V43.6ZM141.398 42.1063C138.612 41.0664 136.257 39.6523 134.302 37.8789L131.614 40.8411C133.98 42.9877 136.784 44.6536 139.999 45.8537L141.398 42.1063ZM134.302 37.8789C132.338 36.0959 130.82 34.0334 129.734 31.6819L126.103 33.3581C127.417 36.2066 129.259 38.7041 131.614 40.8411L134.302 37.8789ZM129.739 31.6924C128.663 29.3248 128.118 26.7686 128.118 24H124.118C124.118 27.3114 124.774 30.4352 126.098 33.3476L129.739 31.6924ZM128.118 24C128.118 21.2312 128.663 18.6993 129.734 16.3781L126.103 14.7019C124.774 17.5807 124.118 20.6888 124.118 24H128.118ZM129.739 16.3676C130.826 13.9771 132.343 11.8991 134.302 10.1211L131.614 7.15888C129.254 9.30088 127.411 11.8229 126.098 14.7124L129.739 16.3676ZM134.302 10.1211C136.251 8.35276 138.599 6.96143 141.376 5.96177L140.021 2.19822C136.798 3.35857 133.986 5.00724 131.614 7.15888L134.302 10.1211ZM141.398 5.95368C144.151 4.92603 147.191 4.4 150.538 4.4V0.399998C146.766 0.399998 143.246 0.993964 139.999 2.20631L141.398 5.95368ZM150.538 4.4C153.887 4.4 156.903 4.92615 159.611 5.95057L161.026 2.20942C157.814 0.993844 154.31 0.399998 150.538 0.399998V4.4ZM159.641 5.96177C162.418 6.96143 164.766 8.35276 166.714 10.1211L169.402 7.15888C167.031 5.00724 164.219 3.35857 160.996 2.19822L159.641 5.96177ZM166.728 10.1333C168.723 11.911 170.255 13.9854 171.338 16.3676L174.979 14.7124C173.662 11.8146 171.793 9.28895 169.389 7.14668L166.728 10.1333ZM171.343 16.3781C172.414 18.6993 172.958 21.2312 172.958 24H176.958C176.958 20.6888 176.303 17.5807 174.974 14.7019L171.343 16.3781ZM170.358 24C170.358 20.7124 169.496 17.7211 167.743 15.0906L164.414 17.3094C165.701 19.2389 166.358 21.4476 166.358 24H170.358ZM167.751 15.1039C166.02 12.4619 163.637 10.4112 160.662 8.94582L158.895 12.5342C161.28 13.7088 163.097 15.2981 164.406 17.2961L167.751 15.1039ZM160.683 8.9565C157.682 7.43325 154.283 6.7 150.538 6.7V10.7C153.754 10.7 156.515 11.3267 158.873 12.5235L160.683 8.9565ZM150.538 6.7C146.758 6.7 143.338 7.43169 140.333 8.9565L142.143 12.5235C144.499 11.3283 147.279 10.7 150.538 10.7V6.7ZM140.355 8.94582C137.38 10.4112 134.997 12.4619 133.266 15.1039L136.611 17.2961C137.92 15.2981 139.737 13.7088 142.122 12.5342L140.355 8.94582ZM133.261 15.1111C131.555 17.7395 130.718 20.7235 130.718 24H134.718C134.718 21.4365 135.362 19.2205 136.616 17.2889L133.261 15.1111ZM130.718 24C130.718 27.2767 131.555 30.2744 133.252 32.9356L136.625 30.7844C135.362 28.8056 134.718 26.5633 134.718 24H130.718ZM133.274 32.9694C135.003 35.5628 137.377 37.6033 140.333 39.1035L142.143 35.5365C139.74 34.3167 137.914 32.7172 136.603 30.7506L133.274 32.9694ZM140.355 39.1142C143.355 40.5917 146.766 41.3 150.538 41.3V37.3C147.271 37.3 144.482 36.6883 142.122 35.5258L140.355 39.1142ZM150.538 41.3C154.274 41.3 157.665 40.5902 160.662 39.1142L158.895 35.5258C156.532 36.6898 153.762 37.3 150.538 37.3V41.3ZM160.683 39.1035C163.648 37.599 166.024 35.5325 167.751 32.8961L164.406 30.7039C163.093 32.7075 161.269 34.321 158.873 35.5365L160.683 39.1035ZM167.751 32.8961C169.493 30.2374 170.358 27.2536 170.358 24H166.358C166.358 26.5064 165.704 28.7226 164.406 30.7039L167.751 32.8961ZM221.764 4.68L221.03 6.54054L221.041 6.54504L221.053 6.54939L221.764 4.68ZM228.904 9.24L227.475 10.6396L227.482 10.6469L227.489 10.6542L228.904 9.24ZM233.224 15.96L231.351 16.6623L231.355 16.672L233.224 15.96ZM232.084 34.56L230.322 33.6131L230.318 33.6211L232.084 34.56ZM224.464 42.18L225.431 43.9303L225.439 43.9259L225.447 43.9215L224.464 42.18ZM191.584 45H189.584V47H191.584V45ZM191.584 3V0.999997H189.584V3H191.584ZM220.864 36.78L219.9 35.0276L219.894 35.031L219.887 35.0345L220.864 36.78ZM226.144 31.44L224.355 30.5456L224.355 30.5456L226.144 31.44ZM226.144 16.68L227.932 15.7856L227.932 15.7856L226.144 16.68ZM220.864 11.28L221.85 9.53995L221.85 9.53995L220.864 11.28ZM198.064 9.24V7.24H196.064V9.24H198.064ZM198.064 38.76H196.064V40.76H198.064V38.76ZM211.864 5C215.429 5 218.471 5.53131 221.03 6.54054L222.497 2.81945C219.376 1.58868 215.818 0.999997 211.864 0.999997V5ZM221.053 6.54939C223.652 7.53768 225.778 8.90752 227.475 10.6396L230.332 7.84044C228.189 5.65248 225.556 3.98231 222.474 2.8106L221.053 6.54939ZM227.489 10.6542C229.206 12.3709 230.49 14.3677 231.351 16.6622L235.096 15.2578C234.037 12.4323 232.441 9.9491 230.318 7.82579L227.489 10.6542ZM231.355 16.672C232.223 18.9527 232.664 21.3902 232.664 24H236.664C236.664 20.9298 236.144 18.0073 235.093 15.248L231.355 16.672ZM232.664 24C232.664 27.529 231.877 30.7209 230.322 33.6131L233.845 35.5069C235.731 31.9991 236.664 28.151 236.664 24H232.664ZM230.318 33.6211C228.833 36.414 226.58 38.6882 223.48 40.4385L225.447 43.9215C229.148 41.8318 231.974 39.026 233.85 35.4989L230.318 33.6211ZM223.496 40.4297C220.465 42.1055 216.62 43 211.864 43V47C217.107 47 221.662 46.0145 225.431 43.9303L223.496 40.4297ZM211.864 43H191.584V47H211.864V43ZM193.584 45V3H189.584V45H193.584ZM191.584 5H211.864V0.999997H191.584V5ZM211.564 40.76C215.61 40.76 219.082 40.0679 221.84 38.5255L219.887 35.0345C217.925 36.1321 215.197 36.76 211.564 36.76V40.76ZM221.827 38.5324C224.548 37.036 226.614 34.9716 227.932 32.3344L224.355 30.5456C223.433 32.3884 221.979 33.884 219.9 35.0276L221.827 38.5324ZM227.932 32.3344C229.203 29.7933 229.824 27.0032 229.824 24H225.824C225.824 26.4368 225.324 28.6067 224.355 30.5456L227.932 32.3344ZM229.824 24C229.824 21.0668 229.199 18.3183 227.932 15.7856L224.355 17.5744C225.328 19.5217 225.824 21.6532 225.824 24H229.824ZM227.932 15.7856C226.617 13.1544 224.559 11.0751 221.85 9.53995L219.878 13.02C221.968 14.2049 223.43 15.7256 224.355 17.5744L227.932 15.7856ZM221.85 9.53995C219.057 7.95721 215.585 7.24 211.564 7.24V11.24C215.142 11.24 217.871 11.8828 219.878 13.02L221.85 9.53995ZM211.564 7.24H198.064V11.24H211.564V7.24ZM196.064 9.24V38.76H200.064V9.24H196.064ZM198.064 40.76H211.564V36.76H198.064V40.76ZM313.411 18.66L311.78 17.5016L311.774 17.5101L313.411 18.66ZM308.731 22.08L308.013 20.2133L302.677 22.2656L308.129 23.9872L308.731 22.08ZM312.931 24.12L311.798 25.7681L311.809 25.7762L311.821 25.7841L312.931 24.12ZM316.051 27.54L314.293 28.4942L314.303 28.5133L314.314 28.5323L316.051 27.54ZM315.811 38.7L314.096 37.671L314.086 37.6869L314.077 37.7031L315.811 38.7ZM312.031 42.48L311.034 40.7462L311.024 40.7517L311.015 40.7573L312.031 42.48ZM306.811 44.46L307.187 46.4243L307.203 46.4213L307.219 46.418L306.811 44.46ZM277.951 45H275.951V47H277.951V45ZM277.951 3V0.999997H275.951V3H277.951ZM284.431 9.24V7.24H282.431V9.24H284.431ZM284.431 20.1H282.431V22.1H284.431V20.1ZM300.691 20.1V22.1H300.71L300.73 22.0996L300.691 20.1ZM306.091 18.66L307.107 20.3827L307.123 20.3732L307.139 20.3633L306.091 18.66ZM305.971 10.5L305.041 12.2708L305.067 12.2846L305.094 12.2975L305.971 10.5ZM284.431 26.4V24.4H282.431V26.4H284.431ZM284.431 38.76H282.431V40.76H284.431V38.76ZM308.011 37.26L308.999 38.9989L309.014 38.9905L309.028 38.9819L308.011 37.26ZM309.151 28.86L307.797 30.3319L307.813 30.3468L307.83 30.3614L309.151 28.86ZM305.431 26.94L305.903 24.9967L305.903 24.9967L305.431 26.94ZM299.791 5C304.649 5 307.966 5.87774 310.04 7.33606L312.341 4.06394C309.295 1.92226 305.012 0.999997 299.791 0.999997V5ZM310.04 7.33606C312.009 8.72012 313.031 10.6957 313.031 13.56H317.031C317.031 9.54433 315.493 6.27988 312.341 4.06394L310.04 7.33606ZM313.031 13.56C313.031 15.0285 312.618 16.323 311.78 17.5016L315.041 19.8184C316.364 17.957 317.031 15.8515 317.031 13.56H313.031ZM311.774 17.5101C311.011 18.5969 309.809 19.5225 308.013 20.2133L309.449 23.9467C311.813 23.0375 313.731 21.6831 315.047 19.8099L311.774 17.5101ZM308.129 23.9872C309.465 24.4091 310.685 25.0032 311.798 25.7681L314.064 22.4719C312.616 21.4768 311.037 20.7109 309.333 20.1728L308.129 23.9872ZM311.821 25.7841C312.87 26.4829 313.688 27.3788 314.293 28.4942L317.808 26.5858C316.894 24.9012 315.632 23.5171 314.04 22.4559L311.821 25.7841ZM314.314 28.5323C314.905 29.5655 315.251 30.9053 315.251 32.64H319.251C319.251 30.3747 318.797 28.3145 317.787 26.5477L314.314 28.5323ZM315.251 32.64C315.251 34.8264 314.82 36.4636 314.096 37.671L317.526 39.729C318.721 37.7364 319.251 35.3336 319.251 32.64H315.251ZM314.077 37.7031C313.333 38.9966 312.327 40.0024 311.034 40.7462L313.028 44.2138C314.934 43.1176 316.448 41.6034 317.545 39.6969L314.077 37.7031ZM311.015 40.7573C309.658 41.5573 308.126 42.143 306.403 42.502L307.219 46.418C309.335 45.977 311.283 45.2427 313.047 44.2027L311.015 40.7573ZM306.435 42.4957C304.676 42.8324 302.922 43 301.171 43V47C303.179 47 305.185 46.8076 307.187 46.4243L306.435 42.4957ZM301.171 43H277.951V47H301.171V43ZM279.951 45V3H275.951V45H279.951ZM277.951 5H299.791V0.999997H277.951V5ZM299.971 7.24H284.431V11.24H299.971V7.24ZM282.431 9.24V20.1H286.431V9.24H282.431ZM284.431 22.1H300.691V18.1H284.431V22.1ZM300.73 22.0996C303.07 22.0537 305.214 21.4987 307.107 20.3827L305.075 16.9373C303.847 17.6613 302.392 18.0663 300.652 18.1004L300.73 22.0996ZM307.139 20.3633C309.261 19.0574 310.431 17.0683 310.431 14.58H306.431C306.431 15.6117 306.04 16.3426 305.043 16.9567L307.139 20.3633ZM310.431 14.58C310.431 13.3323 310.162 12.1384 309.529 11.0873C308.891 10.03 307.961 9.24568 306.848 8.70246L305.094 12.2975C305.62 12.5543 305.92 12.8499 306.103 13.1527C306.289 13.4616 306.431 13.9077 306.431 14.58H310.431ZM306.9 8.7292C304.935 7.69744 302.593 7.24 299.971 7.24V11.24C302.149 11.24 303.806 11.6226 305.041 12.2708L306.9 8.7292ZM300.991 24.4H284.431V28.4H300.991V24.4ZM282.431 26.4V38.76H286.431V26.4H282.431ZM284.431 40.76H301.291V36.76H284.431V40.76ZM301.291 40.76C304.243 40.76 306.852 40.2189 308.999 38.9989L307.023 35.5211C305.65 36.3011 303.779 36.76 301.291 36.76V40.76ZM309.028 38.9819C311.424 37.566 312.651 35.3152 312.651 32.52H308.651C308.651 33.9648 308.117 34.874 306.993 35.5381L309.028 38.9819ZM312.651 32.52C312.651 30.4936 311.979 28.6844 310.472 27.3586L307.83 30.3614C308.323 30.7956 308.651 31.4264 308.651 32.52H312.651ZM310.505 27.3881C309.227 26.2123 307.672 25.4268 305.903 24.9967L304.958 28.8833C306.15 29.1732 307.075 29.6677 307.797 30.3319L310.505 27.3881ZM305.903 24.9967C304.273 24.6001 302.635 24.4 300.991 24.4V28.4C302.307 28.4 303.628 28.5599 304.958 28.8833L305.903 24.9967ZM369.369 21.42L367.58 20.5256L367.572 20.5428L367.563 20.5601L369.369 21.42ZM366.009 25.8L364.704 24.2845L364.704 24.2845L366.009 25.8ZM361.089 28.62L360.432 26.731L357.901 27.6115L359.465 29.7875L361.089 28.62ZM372.909 45.06L372.894 47.0599L376.832 47.0893L374.533 43.8925L372.909 45.06ZM364.869 45L363.242 46.1625L363.835 46.9923L364.854 46.9999L364.869 45ZM353.769 29.46L355.397 28.2975L354.798 27.46H353.769V29.46ZM340.329 29.46V27.46H338.329V29.46H340.329ZM340.329 45V47H342.329V45H340.329ZM333.849 45H331.849V47H333.849V45ZM333.849 3V0.999997H331.849V3H333.849ZM363.729 4.74L362.741 6.47858L362.761 6.48999L362.781 6.50094L363.729 4.74ZM368.709 9.36L367.019 10.4293L367.032 10.4495L367.045 10.4694L368.709 9.36ZM340.329 9.24V7.24H338.329V9.24H340.329ZM340.329 23.22H338.329V25.22H340.329V23.22ZM359.769 22.26L360.71 24.0247L360.721 24.0192L360.731 24.0136L359.769 22.26ZM362.709 19.62L364.373 20.7294L364.383 20.7155L364.392 20.7015L362.709 19.62ZM362.649 12.54L361.034 13.72L361.046 13.7352L361.057 13.7502L362.649 12.54ZM359.589 10.14L358.74 11.9509L358.764 11.9619L358.788 11.9723L359.589 10.14ZM368.629 16.02C368.629 17.6366 368.278 19.1296 367.58 20.5256L371.158 22.3144C372.14 20.3504 372.629 18.2433 372.629 16.02H368.629ZM367.563 20.5601C366.886 21.9837 365.938 23.2219 364.704 24.2845L367.314 27.3155C368.96 25.8981 370.253 24.2163 371.175 22.2799L367.563 20.5601ZM364.704 24.2845C363.46 25.3562 362.041 26.1715 360.432 26.731L361.746 30.509C363.818 29.7885 365.679 28.7238 367.314 27.3155L364.704 24.2845ZM359.465 29.7875L371.285 46.2275L374.533 43.8925L362.713 27.4525L359.465 29.7875ZM372.924 43.0601L364.884 43.0001L364.854 46.9999L372.894 47.0599L372.924 43.0601ZM366.497 43.8375L355.397 28.2975L352.142 30.6225L363.242 46.1625L366.497 43.8375ZM353.769 27.46H340.329V31.46H353.769V27.46ZM338.329 29.46V45H342.329V29.46H338.329ZM340.329 43H333.849V47H340.329V43ZM335.849 45V3H331.849V45H335.849ZM333.849 5H357.069V0.999997H333.849V5ZM357.069 5C359.131 5 361.009 5.49394 362.741 6.47858L364.718 3.00142C362.369 1.66606 359.808 0.999997 357.069 0.999997V5ZM362.781 6.50094C364.564 7.46114 365.966 8.76536 367.019 10.4293L370.399 8.29071C368.972 6.03464 367.054 4.25885 364.677 2.97906L362.781 6.50094ZM367.045 10.4694C368.086 12.0307 368.629 13.8569 368.629 16.02H372.629C372.629 13.1431 371.892 10.5293 370.373 8.2506L367.045 10.4694ZM355.389 7.24H340.329V11.24H355.389V7.24ZM338.329 9.24V23.22H342.329V9.24H338.329ZM340.329 25.22H355.749V21.22H340.329V25.22ZM355.749 25.22C357.528 25.22 359.196 24.8326 360.71 24.0247L358.828 20.4953C357.943 20.9674 356.931 21.22 355.749 21.22V25.22ZM360.731 24.0136C362.228 23.1928 363.459 22.1011 364.373 20.7294L361.045 18.5106C360.52 19.2989 359.791 19.9672 358.808 20.5064L360.731 24.0136ZM364.392 20.7015C365.317 19.2619 365.789 17.667 365.789 15.96H361.789C361.789 16.893 361.541 17.7381 361.027 18.5385L364.392 20.7015ZM365.789 15.96C365.789 14.2519 365.271 12.6849 364.242 11.3298L361.057 13.7502C361.547 14.3951 361.789 15.1081 361.789 15.96H365.789ZM364.264 11.36C363.278 10.0105 361.967 8.99703 360.391 8.30768L358.788 11.9723C359.772 12.403 360.501 12.9895 361.034 13.72L364.264 11.36ZM360.438 8.32908C358.873 7.59536 357.18 7.24 355.389 7.24V11.24C356.638 11.24 357.746 11.4846 358.74 11.9509L360.438 8.32908ZM434.018 32.52L435.834 33.3581L435.839 33.3476L434.018 32.52ZM428.918 39.36L427.587 37.8667L427.581 37.8727L427.574 37.8789L428.918 39.36ZM421.178 43.98L421.863 45.8588L421.87 45.8563L421.877 45.8537L421.178 43.98ZM401.558 43.98L400.858 45.8537L400.869 45.8578L400.88 45.8618L401.558 43.98ZM393.818 39.36L395.162 37.8789L395.162 37.8789L393.818 39.36ZM388.778 32.52L386.957 33.3476L386.962 33.3581L388.778 32.52ZM388.778 15.54L390.594 16.3781L390.599 16.3676L388.778 15.54ZM393.818 8.64L395.162 10.1211L395.162 10.1211L393.818 8.64ZM401.558 4.08L402.235 5.96177L402.246 5.95779L402.257 5.95368L401.558 4.08ZM421.178 4.08L420.47 5.95057L420.485 5.95629L420.5 5.96177L421.178 4.08ZM428.918 8.64L427.574 10.1211L427.581 10.1273L427.587 10.1333L428.918 8.64ZM434.018 15.54L432.197 16.3676L432.202 16.3781L434.018 15.54ZM426.938 16.2L425.265 17.2961L425.269 17.3027L425.274 17.3094L426.938 16.2ZM420.638 10.74L419.733 12.5235L419.743 12.5289L419.754 12.5342L420.638 10.74ZM402.098 10.74L402.982 12.5342L402.992 12.5289L403.003 12.5235L402.098 10.74ZM395.798 16.2L394.125 15.1039L394.12 15.1111L395.798 16.2ZM395.798 31.86L394.112 32.9356L394.123 32.9526L394.134 32.9694L395.798 31.86ZM402.098 37.32L401.193 39.1035L401.203 39.1089L401.214 39.1142L402.098 37.32ZM420.638 37.32L421.522 39.1142L421.532 39.1089L421.543 39.1035L420.638 37.32ZM426.938 31.8L428.611 32.8961L428.611 32.8961L426.938 31.8ZM433.818 24C433.818 26.7686 433.273 29.3248 432.197 31.6924L435.839 33.3476C437.162 30.4352 437.818 27.3114 437.818 24H433.818ZM432.202 31.6819C431.12 34.0252 429.588 36.084 427.587 37.8667L430.248 40.8533C432.647 38.716 434.515 36.2148 435.834 33.3581L432.202 31.6819ZM427.574 37.8789C425.619 39.6523 423.264 41.0664 420.478 42.1063L421.877 45.8537C425.092 44.6536 427.896 42.9877 430.262 40.8411L427.574 37.8789ZM420.492 42.1012C417.779 43.0913 414.754 43.6 411.398 43.6V47.6C415.162 47.6 418.657 47.0287 421.863 45.8588L420.492 42.1012ZM411.398 43.6C408.042 43.6 404.994 43.0914 402.235 42.0982L400.88 45.8618C404.121 47.0286 407.634 47.6 411.398 47.6V43.6ZM402.257 42.1063C399.472 41.0664 397.116 39.6523 395.162 37.8789L392.474 40.8411C394.839 42.9877 397.644 44.6536 400.858 45.8537L402.257 42.1063ZM395.162 37.8789C393.197 36.0959 391.679 34.0334 390.594 31.6819L386.962 33.3581C388.277 36.2066 390.119 38.7041 392.474 40.8411L395.162 37.8789ZM390.599 31.6924C389.522 29.3248 388.978 26.7686 388.978 24H384.978C384.978 27.3114 385.633 30.4352 386.957 33.3476L390.599 31.6924ZM388.978 24C388.978 21.2312 389.522 18.6993 390.594 16.3781L386.962 14.7019C385.633 17.5807 384.978 20.6888 384.978 24H388.978ZM390.599 16.3676C391.685 13.9771 393.202 11.8991 395.162 10.1211L392.474 7.15888C390.113 9.30088 388.27 11.8229 386.957 14.7124L390.599 16.3676ZM395.162 10.1211C397.111 8.35276 399.458 6.96143 402.235 5.96177L400.88 2.19822C397.657 3.35857 394.845 5.00724 392.474 7.15888L395.162 10.1211ZM402.257 5.95368C405.01 4.92603 408.05 4.4 411.398 4.4V0.399998C407.626 0.399998 404.106 0.993964 400.858 2.20631L402.257 5.95368ZM411.398 4.4C414.746 4.4 417.763 4.92615 420.47 5.95057L421.886 2.20942C418.673 0.993844 415.17 0.399998 411.398 0.399998V4.4ZM420.5 5.96177C423.277 6.96143 425.625 8.35276 427.574 10.1211L430.262 7.15888C427.891 5.00724 425.078 3.35857 421.855 2.19822L420.5 5.96177ZM427.587 10.1333C429.583 11.911 431.114 13.9854 432.197 16.3676L435.839 14.7124C434.521 11.8146 432.653 9.28895 430.248 7.14668L427.587 10.1333ZM432.202 16.3781C433.273 18.6993 433.818 21.2312 433.818 24H437.818C437.818 20.6888 437.162 17.5807 435.834 14.7019L432.202 16.3781ZM431.218 24C431.218 20.7124 430.356 17.7211 428.602 15.0906L425.274 17.3094C426.56 19.2389 427.218 21.4476 427.218 24H431.218ZM428.611 15.1039C426.88 12.4619 424.497 10.4112 421.522 8.94582L419.754 12.5342C422.139 13.7088 423.956 15.2981 425.265 17.2961L428.611 15.1039ZM421.543 8.9565C418.541 7.43325 415.143 6.7 411.398 6.7V10.7C414.613 10.7 417.374 11.3267 419.733 12.5235L421.543 8.9565ZM411.398 6.7C407.617 6.7 404.198 7.43169 401.193 8.9565L403.003 12.5235C405.358 11.3283 408.139 10.7 411.398 10.7V6.7ZM401.214 8.94582C398.239 10.4112 395.856 12.4619 394.125 15.1039L397.471 17.2961C398.78 15.2981 400.597 13.7088 402.982 12.5342L401.214 8.94582ZM394.12 15.1111C392.414 17.7395 391.578 20.7235 391.578 24H395.578C395.578 21.4365 396.222 19.2205 397.475 17.2889L394.12 15.1111ZM391.578 24C391.578 27.2767 392.414 30.2744 394.112 32.9356L397.484 30.7844C396.222 28.8056 395.578 26.5633 395.578 24H391.578ZM394.134 32.9694C395.863 35.5628 398.236 37.6033 401.193 39.1035L403.003 35.5365C400.599 34.3167 398.773 32.7172 397.462 30.7506L394.134 32.9694ZM401.214 39.1142C404.214 40.5917 407.626 41.3 411.398 41.3V37.3C408.13 37.3 405.342 36.6883 402.982 35.5258L401.214 39.1142ZM411.398 41.3C415.134 41.3 418.525 40.5902 421.522 39.1142L419.754 35.5258C417.391 36.6898 414.622 37.3 411.398 37.3V41.3ZM421.543 39.1035C424.508 37.599 426.883 35.5325 428.611 32.8961L425.265 30.7039C423.952 32.7075 422.128 34.321 419.733 35.5365L421.543 39.1035ZM428.611 32.8961C430.353 30.2374 431.218 27.2536 431.218 24H427.218C427.218 26.5064 426.563 28.7226 425.265 30.7039L428.611 32.8961ZM460.603 23.16L460.204 21.2002L458.307 21.5863L458.631 23.4951L460.603 23.16ZM470.923 19.68L471.943 21.4001L470.923 19.68ZM473.263 11.4L471.849 12.8142L471.867 12.8323L471.885 12.85L473.263 11.4ZM470.143 9.6L469.546 11.509L469.546 11.509L470.143 9.6ZM458.503 10.74L459.424 12.5155L459.436 12.5088L459.449 12.502L458.503 10.74ZM453.043 15.3L451.629 16.7142L453.238 18.3232L454.627 16.521L453.043 15.3ZM448.543 10.8L446.991 9.53881L445.853 10.9387L447.129 12.2142L448.543 10.8ZM456.223 4.74L457.098 6.53822L457.108 6.53359L457.117 6.52885L456.223 4.74ZM474.703 4.02L473.896 5.85017L473.91 5.85593L473.923 5.8615L474.703 4.02ZM480.223 19.74L478.665 18.486L478.656 18.4976L478.646 18.5095L480.223 19.74ZM475.123 24.06L476.108 25.8005L476.121 25.7935L476.133 25.7864L475.123 24.06ZM468.343 26.88L467.798 24.9557L466.619 25.2898L466.381 26.4919L468.343 26.88ZM467.263 32.34V34.34H468.906L469.225 32.7281L467.263 32.34ZM462.163 32.34L460.191 32.6751L460.474 34.34H462.163V32.34ZM460.603 44.46L459.254 45.937L459.288 45.9675L459.323 45.9964L460.603 44.46ZM460.603 38.04L459.219 36.596L459.204 36.6107L459.189 36.6258L460.603 38.04ZM469.423 37.92L468.074 39.397L468.108 39.4275L468.143 39.4564L469.423 37.92ZM469.423 44.28L468.009 42.8658L468.009 42.8658L469.423 44.28ZM461.002 25.1198C465.613 24.1813 469.304 22.9658 471.943 21.4001L469.903 17.9599C467.822 19.1942 464.633 20.2987 460.204 21.2002L461.002 25.1198ZM471.943 21.4001C474.721 19.7521 476.463 17.4014 476.463 14.34H472.463C472.463 15.5986 471.844 16.8079 469.903 17.9599L471.943 21.4001ZM476.463 14.34C476.463 12.6451 475.875 11.1228 474.64 9.95L471.885 12.85C472.251 13.1972 472.463 13.6349 472.463 14.34H476.463ZM474.677 9.98579C473.61 8.91842 472.271 8.16964 470.74 7.69104L469.546 11.509C470.575 11.8304 471.316 12.2816 471.849 12.8142L474.677 9.98579ZM470.74 7.69104C469.253 7.2264 467.69 7 466.063 7V11C467.316 11 468.473 11.1736 469.546 11.509L470.74 7.69104ZM466.063 7C462.911 7 460.055 7.63655 457.557 8.97801L459.449 12.502C461.271 11.5234 463.455 11 466.063 11V7ZM457.582 8.96449C455.164 10.2182 453.118 11.9271 451.459 14.079L454.627 16.521C455.928 14.8329 457.522 13.5018 459.424 12.5155L457.582 8.96449ZM454.457 13.8858L449.957 9.38578L447.129 12.2142L451.629 16.7142L454.457 13.8858ZM450.095 12.0612C451.987 9.73313 454.314 7.89395 457.098 6.53822L455.348 2.94178C452.052 4.54605 449.259 6.74687 446.991 9.53881L450.095 12.0612ZM457.117 6.52885C459.846 5.1648 462.973 4.46 466.543 4.46V0.459997C462.433 0.459997 458.68 1.2752 455.329 2.95115L457.117 6.52885ZM466.543 4.46C469.398 4.46 471.835 4.94174 473.896 5.85017L475.509 2.18983C472.851 1.01826 469.848 0.459997 466.543 0.459997V4.46ZM473.923 5.8615C476.001 6.74212 477.533 7.93421 478.61 9.40272L481.836 7.03727C480.273 4.90578 478.125 3.29787 475.483 2.17849L473.923 5.8615ZM478.61 9.40272C479.673 10.8519 480.203 12.4756 480.203 14.34H484.203C484.203 11.6444 483.413 9.18812 481.836 7.03727L478.61 9.40272ZM480.203 14.34C480.203 15.8089 479.722 17.1731 478.665 18.486L481.781 20.994C483.364 19.0269 484.203 16.7911 484.203 14.34H480.203ZM478.646 18.5095C477.548 19.9172 476.053 21.1989 474.113 22.3336L476.133 25.7864C478.433 24.4411 480.338 22.8428 481.8 20.9705L478.646 18.5095ZM474.138 22.3195C472.16 23.439 470.048 24.3182 467.798 24.9557L468.888 28.8043C471.438 28.0818 473.846 27.081 476.108 25.8005L474.138 22.3195ZM466.381 26.4919L465.301 31.9519L469.225 32.7281L470.305 27.2681L466.381 26.4919ZM467.263 30.34H462.163V34.34H467.263V30.34ZM464.135 32.0049L462.575 22.8249L458.631 23.4951L460.191 32.6751L464.135 32.0049ZM465.043 43.66C463.247 43.66 462.323 43.2902 461.883 42.9236L459.323 45.9964C460.803 47.2298 462.839 47.66 465.043 47.66V43.66ZM461.952 42.983C461.487 42.5591 461.223 42.0156 461.223 41.16H457.223C457.223 43.0244 457.879 44.6809 459.254 45.937L461.952 42.983ZM461.223 41.16C461.223 40.597 461.422 40.049 462.017 39.4542L459.189 36.6258C457.944 37.871 457.223 39.403 457.223 41.16H461.223ZM461.987 39.484C462.424 39.065 463.304 38.66 465.043 38.66V34.66C462.782 34.66 460.702 35.175 459.219 36.596L461.987 39.484ZM465.043 38.66C466.83 38.66 467.691 39.0465 468.074 39.397L470.772 36.443C469.315 35.1135 467.255 34.66 465.043 34.66V38.66ZM468.143 39.4564C468.603 39.8399 468.863 40.334 468.863 41.16H472.863C472.863 39.266 472.163 37.6001 470.703 36.3836L468.143 39.4564ZM468.863 41.16C468.863 41.6405 468.679 42.196 468.009 42.8658L470.837 45.6942C472.087 44.444 472.863 42.9195 472.863 41.16H468.863ZM468.009 42.8658C467.623 43.2512 466.791 43.66 465.043 43.66V47.66C467.295 47.66 469.383 47.1488 470.837 45.6942L468.009 42.8658Z" fill="#F2F2F2"/>
</svg>
