<svg width="476" height="67" viewBox="0 0 476 67" fill="none" xmlns="http://www.w3.org/2000/svg">
<path d="M50.104 4.746L49.5751 6.67482L49.583 6.67693L50.104 4.746ZM65.928 13.518L67.4165 14.8538L68.5975 13.5378L67.4362 12.2044L65.928 13.518ZM59.908 20.226L58.6549 21.7848L60.1313 22.9716L61.3965 21.5618L59.908 20.226ZM50.104 14.55L49.3306 16.3944L49.3484 16.4019L49.3663 16.409L50.104 14.55ZM15.876 22.892L17.5035 24.0545L17.5083 24.0477L17.5131 24.0409L15.876 22.892ZM14.5 43.532L12.7111 44.4264L12.7185 44.4412L12.7262 44.4559L14.5 43.532ZM20.262 50.412L19.0499 52.0029L19.0709 52.0189L19.0924 52.0344L20.262 50.412ZM28.518 54.454L27.94 56.3687L27.9498 56.3716L28.518 54.454ZM49.674 54.196L50.2778 56.1027L50.2922 56.0981L50.3065 56.0934L49.674 54.196ZM57.93 49.638L59.2815 51.1123L59.2833 51.1107L57.93 49.638ZM61.37 42.844L63.3656 42.977L63.5078 40.844H61.37V42.844ZM38.408 42.844H36.408V44.844H38.408V42.844ZM38.408 33.814V31.814H36.408V33.814H38.408ZM71.26 33.814L73.2328 33.4852L72.9543 31.814H71.26V33.814ZM71.518 35.964L69.5239 36.1174L69.5249 36.1301L71.518 35.964ZM70.142 46.886L68.2525 46.2305L68.2525 46.2305L70.142 46.886ZM66.272 53.938L64.747 52.644L64.7283 52.6661L64.7103 52.6886L66.272 53.938ZM54.662 62.022L55.3785 63.8893L55.39 63.8848L54.662 62.022ZM24.132 62.882L23.5074 64.782L23.5192 64.7858L23.531 64.7896L24.132 62.882ZM12.952 56.862L11.6825 58.4075L11.6892 58.413L11.696 58.4184L12.952 56.862ZM5.384 21.86L7.17289 22.7544L7.17834 22.7434L5.384 21.86ZM13.038 12.142L14.3263 13.6718L14.3341 13.6653L14.3418 13.6586L13.038 12.142ZM38.58 5.284C42.5504 5.284 46.212 5.75265 49.5751 6.67481L50.6329 2.81719C46.8867 1.79001 42.8656 1.284 38.58 1.284V5.284ZM49.583 6.67693C53.0613 7.61554 56.049 8.81728 58.5678 10.2642L60.5603 6.79579C57.6896 5.14671 54.3707 3.82579 50.625 2.81506L49.583 6.67693ZM58.5678 10.2642C61.1274 11.7346 63.0561 13.2657 64.4198 14.8316L67.4362 12.2044C65.7039 10.2156 63.39 8.42136 60.5603 6.79579L58.5678 10.2642ZM64.4395 12.1822L58.4195 18.8902L61.3965 21.5618L67.4165 14.8538L64.4395 12.1822ZM61.1611 18.6672C58.0758 16.1869 54.6328 14.1954 50.8417 12.691L49.3663 16.409C52.7992 17.7712 55.8922 19.5638 58.6549 21.7848L61.1611 18.6672ZM50.8775 12.7056C47.0609 11.1051 42.9545 10.314 38.58 10.314V14.314C42.4615 14.314 46.0378 15.0136 49.3306 16.3944L50.8775 12.7056ZM38.58 10.314C33.3881 10.314 28.6443 11.3117 24.3871 13.3477L26.1129 16.9563C29.7677 15.2083 33.9106 14.314 38.58 14.314V10.314ZM24.3871 13.3477C20.1523 15.3731 16.7487 18.1667 14.2389 21.7431L17.5131 24.0409C19.59 21.0813 22.4357 18.7149 26.1129 16.9563L24.3871 13.3477ZM14.2485 21.7295C11.7013 25.2957 10.436 29.3757 10.436 33.9H14.436C14.436 30.1683 15.4641 26.9096 17.5035 24.0545L14.2485 21.7295ZM10.436 33.9C10.436 37.8205 11.172 41.3481 12.7111 44.4264L16.2889 42.6376C15.076 40.2119 14.436 37.3181 14.436 33.9H10.436ZM12.7262 44.4559C14.2919 47.4621 16.4019 49.9854 19.0499 52.0029L21.4741 48.8211C19.3061 47.1693 17.5748 45.1059 16.2738 42.6081L12.7262 44.4559ZM19.0924 52.0344C21.7453 53.9469 24.6988 55.3902 27.94 56.3687L29.096 52.5393C26.2599 51.6831 23.7094 50.4318 21.4316 48.7896L19.0924 52.0344ZM27.9498 56.3716C31.2357 57.3452 34.6381 57.83 38.15 57.83V53.83C35.0113 53.83 31.9923 53.3975 29.0862 52.5364L27.9498 56.3716ZM38.15 57.83C42.5625 57.83 46.6117 57.2636 50.2778 56.1027L49.0702 52.2893C45.8563 53.307 42.2229 53.83 38.15 53.83V57.83ZM50.3065 56.0934C53.9378 54.8829 56.9586 53.2415 59.2815 51.1123L56.5786 48.1637C54.7734 49.8185 52.2903 51.2157 49.0415 52.2986L50.3065 56.0934ZM59.2833 51.1107C61.7358 48.8569 63.1554 46.1297 63.3656 42.977L59.3744 42.711C59.2406 44.7183 58.3668 46.5204 56.5768 48.1653L59.2833 51.1107ZM61.37 40.844H38.408V44.844H61.37V40.844ZM40.408 42.844V33.814H36.408V42.844H40.408ZM38.408 35.814H71.26V31.814H38.408V35.814ZM69.2872 34.1428C69.3915 34.7687 69.4708 35.4267 69.5239 36.1174L73.5121 35.8106C73.4506 35.0107 73.3578 34.2353 73.2328 33.4852L69.2872 34.1428ZM69.5249 36.1301C69.5777 36.763 69.604 37.3956 69.604 38.028H73.604C73.604 37.2844 73.573 36.541 73.5111 35.7979L69.5249 36.1301ZM69.604 38.028C69.604 40.9101 69.151 43.6405 68.2525 46.2305L72.0315 47.5415C73.0823 44.5128 73.604 41.3379 73.604 38.028H69.604ZM68.2525 46.2305C67.3432 48.8515 66.1641 50.9738 64.747 52.644L67.797 55.232C69.5905 53.1182 70.9915 50.5392 72.0315 47.5415L68.2525 46.2305ZM64.7103 52.6886C62.2203 55.8011 58.6654 58.3102 53.934 60.1592L55.39 63.8848C60.6346 61.8352 64.8197 58.9549 67.8337 55.1874L64.7103 52.6886ZM53.9455 60.1547C49.2907 61.9409 43.8092 62.86 37.462 62.86V66.86C44.1868 66.86 50.172 65.8871 55.3785 63.8892L53.9455 60.1547ZM37.462 62.86C32.95 62.86 28.7105 62.2276 24.733 60.9744L23.531 64.7896C27.9242 66.1737 32.5713 66.86 37.462 66.86V62.86ZM24.7566 60.982C20.7894 59.6777 17.2789 57.7839 14.208 55.3056L11.696 58.4184C15.1611 61.2148 19.104 63.3343 23.5074 64.782L24.7566 60.982ZM14.2215 55.3165C11.2428 52.8698 8.90036 49.8658 7.18872 46.282L3.57928 48.006C5.53697 52.1049 8.23989 55.5796 11.6825 58.4075L14.2215 55.3165ZM7.18872 46.282C5.50288 42.7523 4.632 38.6406 4.632 33.9H0.632C0.632 39.1354 1.59578 43.853 3.57928 48.006L7.18872 46.282ZM4.632 33.9C4.632 29.8334 5.48563 26.1289 7.17285 22.7544L3.59515 20.9656C1.61304 24.9298 0.632 29.252 0.632 33.9H4.632ZM7.17834 22.7434C8.88731 19.272 11.2637 16.2509 14.3263 13.6718L11.7497 10.6122C8.27635 13.5371 5.55003 16.9946 3.58966 20.9766L7.17834 22.7434ZM14.3418 13.6586C17.4096 11.0214 21.0034 8.96215 25.1455 7.4906L23.8065 3.7214C19.2339 5.34585 15.2024 7.64393 11.7342 10.6254L14.3418 13.6586ZM25.1455 7.4906C29.2692 6.02562 33.742 5.284 38.58 5.284V1.284C33.3273 1.284 28.3975 2.09037 23.8065 3.7214L25.1455 7.4906ZM157.652 46.112L159.468 46.9501L159.472 46.9396L157.652 46.112ZM150.342 55.916L149.011 54.4227L149.004 54.4287L148.998 54.4349L150.342 55.916ZM139.248 62.538L139.933 64.4168L139.94 64.4143L139.947 64.4117L139.248 62.538ZM111.126 62.538L110.426 64.4117L110.437 64.4158L110.448 64.4198L111.126 62.538ZM100.032 55.916L101.376 54.4349L101.376 54.4349L100.032 55.916ZM92.8077 46.112L90.9869 46.9396L90.9918 46.9501L92.8077 46.112ZM92.8077 21.774L94.6237 22.6121L94.6284 22.6016L92.8077 21.774ZM100.032 11.884L101.376 13.3651L101.376 13.3651L100.032 11.884ZM111.126 5.348L111.803 7.22977L111.814 7.22579L111.825 7.22168L111.126 5.348ZM139.248 5.348L138.54 7.21857L138.555 7.22429L138.57 7.22977L139.248 5.348ZM150.342 11.884L148.998 13.3651L149.004 13.3713L149.011 13.3773L150.342 11.884ZM157.652 21.774L155.831 22.6016L155.836 22.6121L157.652 21.774ZM147.504 22.72L145.831 23.8161L145.835 23.8227L145.84 23.8294L147.504 22.72ZM138.474 14.894L137.569 16.6775L137.579 16.6829L137.59 16.6882L138.474 14.894ZM111.9 14.894L112.783 16.6882L112.794 16.6829L112.805 16.6775L111.9 14.894ZM102.87 22.72L101.197 21.6239L101.192 21.6311L102.87 22.72ZM102.87 45.166L101.184 46.2416L101.194 46.2586L101.206 46.2754L102.87 45.166ZM111.9 52.992L110.995 54.7755L111.005 54.7809L111.016 54.7862L111.9 52.992ZM138.474 52.992L139.357 54.7862L139.368 54.7809L139.379 54.7755L138.474 52.992ZM147.504 45.08L149.177 46.1761L149.177 46.1761L147.504 45.08ZM158.232 33.9C158.232 37.9859 157.427 41.7728 155.831 45.2844L159.472 46.9396C161.316 42.8832 162.232 38.5287 162.232 33.9H158.232ZM155.836 45.2739C154.234 48.7438 151.966 51.7907 149.011 54.4227L151.672 57.4093C155.024 54.4227 157.629 50.9335 159.468 46.9501L155.836 45.2739ZM148.998 54.4349C146.107 57.0577 142.634 59.139 138.548 60.6643L139.947 64.4117C144.462 62.7263 148.384 60.393 151.686 57.3971L148.998 54.4349ZM138.562 60.6592C134.566 62.1173 130.129 62.86 125.23 62.86V66.86C130.536 66.86 135.444 66.0547 139.933 64.4168L138.562 60.6592ZM125.23 62.86C120.331 62.86 115.862 62.1174 111.803 60.6562L110.448 64.4198C114.989 66.0546 119.923 66.86 125.23 66.86V62.86ZM111.825 60.6643C107.74 59.139 104.266 57.0577 101.376 54.4349L98.6877 57.3971C101.989 60.393 105.912 62.7263 110.426 64.4117L111.825 60.6643ZM101.376 54.4349C98.4748 51.8026 96.229 48.7521 94.6236 45.2739L90.9918 46.9501C92.8265 50.9252 95.3966 54.4107 98.6877 57.3971L101.376 54.4349ZM94.6284 45.2844C93.0323 41.7728 92.2277 37.9859 92.2277 33.9H88.2277C88.2277 38.5287 89.1431 42.8832 90.987 46.9396L94.6284 45.2844ZM92.2277 33.9C92.2277 29.8139 93.0323 26.06 94.6236 22.6121L90.9918 20.9359C89.1431 24.9413 88.2277 29.2715 88.2277 33.9H92.2277ZM94.6284 22.6016C96.235 19.0671 98.4803 15.9925 101.376 13.3651L98.6877 10.4029C95.3912 13.3942 92.8204 16.9129 90.987 20.9464L94.6284 22.6016ZM101.376 13.3651C104.26 10.7474 107.726 8.69742 111.803 7.22977L110.448 3.46622C105.925 5.09457 101.995 7.40191 98.6877 10.4029L101.376 13.3651ZM111.825 7.22168C115.878 5.7087 120.339 4.94 125.23 4.94V0.939997C119.915 0.939997 114.974 1.77663 110.426 3.47431L111.825 7.22168ZM125.23 4.94C130.121 4.94 134.55 5.70882 138.54 7.21857L139.955 3.47742C135.46 1.77651 130.544 0.939997 125.23 0.939997V4.94ZM138.57 7.22977C142.647 8.69742 146.113 10.7474 148.998 13.3651L151.686 10.4029C148.378 7.40191 144.448 5.09457 139.925 3.46622L138.57 7.22977ZM149.011 13.3773C151.96 16.0044 154.228 19.0754 155.831 22.6016L159.472 20.9464C157.635 16.9046 155.03 13.3823 151.672 10.3907L149.011 13.3773ZM155.836 22.6121C157.427 26.06 158.232 29.8139 158.232 33.9H162.232C162.232 29.2715 161.316 24.9413 159.468 20.9359L155.836 22.6121ZM152.772 33.9C152.772 29.347 151.58 25.2291 149.168 21.6106L145.84 23.8294C147.785 26.7469 148.772 30.0823 148.772 33.9H152.772ZM149.177 21.6239C146.787 17.9765 143.494 15.1372 139.357 13.0998L137.59 16.6882C141.136 18.4348 143.863 20.8128 145.831 23.8161L149.177 21.6239ZM139.379 13.1105C135.216 10.9979 130.482 9.97 125.23 9.97V13.97C129.953 13.97 134.049 14.8914 137.569 16.6775L139.379 13.1105ZM125.23 9.97C119.924 9.97 115.161 10.9964 110.995 13.1105L112.805 16.6775C116.321 14.893 120.445 13.97 125.23 13.97V9.97ZM111.016 13.0998C106.88 15.1372 103.586 17.9765 101.197 21.6239L104.543 23.8161C106.51 20.8128 109.237 18.4348 112.783 16.6882L111.016 13.0998ZM101.192 21.6311C98.8446 25.2475 97.6877 29.3581 97.6877 33.9H101.688C101.688 30.0712 102.652 26.7285 104.547 23.8089L101.192 21.6311ZM97.6877 33.9C97.6877 38.4421 98.8445 42.575 101.184 46.2416L104.556 44.0904C102.652 41.1063 101.688 37.7286 101.688 33.9H97.6877ZM101.206 46.2754C103.593 49.8568 106.877 52.6859 110.995 54.7755L112.805 51.2085C109.24 49.3994 106.504 47.0112 104.534 44.0566L101.206 46.2754ZM111.016 54.7862C115.177 56.8357 119.932 57.83 125.23 57.83V53.83C120.437 53.83 116.305 52.9323 112.783 51.1978L111.016 54.7862ZM125.23 57.83C130.474 57.83 135.199 56.8342 139.357 54.7862L137.59 51.1978C134.065 52.9338 129.962 53.83 125.23 53.83V57.83ZM139.379 54.7755C143.505 52.6817 146.791 49.8179 149.177 46.1761L145.831 43.9839C143.859 46.9928 141.125 49.4037 137.569 51.2085L139.379 54.7755ZM149.177 46.1761C151.577 42.512 152.772 38.4016 152.772 33.9H148.772C148.772 37.6544 147.788 40.9973 145.831 43.9839L149.177 46.1761ZM196.422 64H194.422V66H196.422V64ZM196.422 12.744H198.422V10.744H196.422V12.744ZM174.75 12.744H172.75V14.744H174.75V12.744ZM174.75 3.8V1.8H172.75V3.8H174.75ZM227.898 3.8H229.898V1.8H227.898V3.8ZM227.898 12.744V14.744H229.898V12.744H227.898ZM205.71 12.744V10.744H203.71V12.744H205.71ZM205.71 64V66H207.71V64H205.71ZM198.422 64V12.744H194.422V64H198.422ZM196.422 10.744H174.75V14.744H196.422V10.744ZM176.75 12.744V3.8H172.75V12.744H176.75ZM174.75 5.8H227.898V1.8H174.75V5.8ZM225.898 3.8V12.744H229.898V3.8H225.898ZM227.898 10.744H205.71V14.744H227.898V10.744ZM203.71 12.744V64H207.71V12.744H203.71ZM205.71 62H196.422V66H205.71V62ZM302.091 55.4L303.388 56.9225L304.657 55.8421L303.823 54.3994L302.091 55.4ZM295.813 59.614L296.798 61.3551L296.798 61.3551L295.813 59.614ZM286.783 63.398L287.337 65.3198L287.352 65.3155L287.367 65.311L286.783 63.398ZM262.789 62.71L262.102 64.588L262.113 64.5923L262.125 64.5965L262.789 62.71ZM252.125 56.432L250.798 57.9284L250.798 57.9284L252.125 56.432ZM244.987 46.714L243.162 47.5313L243.167 47.5416L244.987 46.714ZM245.073 21.688L246.879 22.5489L246.879 22.5489L245.073 21.688ZM252.383 11.97L251.068 10.4631L251.061 10.4691L251.055 10.4752L252.383 11.97ZM263.219 5.606L263.907 7.48404L263.919 7.47978L263.93 7.47539L263.219 5.606ZM286.869 4.746L286.324 6.67025L286.324 6.67025L286.869 4.746ZM296.071 8.53L295.075 10.2642L295.083 10.2687L295.091 10.2731L296.071 8.53ZM302.693 13.432L304.293 14.632L305.316 13.2679L304.131 12.042L302.693 13.432ZM297.017 21L295.728 22.529L297.347 23.8939L298.617 22.2L297.017 21ZM287.299 14.894L286.441 16.7003L286.458 16.7087L286.476 16.7167L287.299 14.894ZM266.745 13.948L267.401 15.8375L267.418 15.8316L267.435 15.8253L266.745 13.948ZM259.177 18.248L260.446 19.7941L260.458 19.7845L260.469 19.7748L259.177 18.248ZM253.845 24.956L252.057 24.0616L252.057 24.0616L253.845 24.956ZM253.931 43.446L252.143 44.3404L252.146 44.348L252.15 44.3556L253.931 43.446ZM259.435 50.24L258.186 51.8017L258.195 51.8092L258.205 51.8166L259.435 50.24ZM267.433 54.368L266.845 56.2796L266.855 56.2827L267.433 54.368ZM285.321 54.54L285.928 56.4459L285.941 56.4417L285.954 56.4374L285.321 54.54ZM292.201 51.358L293.266 53.0513L293.266 53.0513L292.201 51.358ZM297.619 47.66L299.351 46.6594L298.223 44.7072L296.419 46.06L297.619 47.66ZM300.794 53.8775C299.378 55.084 297.404 56.4177 294.829 57.8729L296.798 61.3551C299.498 59.829 301.709 58.3534 303.388 56.9225L300.794 53.8775ZM294.829 57.8729C292.338 59.2811 289.466 60.4887 286.2 61.485L287.367 65.311C290.866 64.2433 294.014 62.9282 296.798 61.3551L294.829 57.8729ZM286.23 61.4762C283.043 62.3945 279.618 62.86 275.947 62.86V66.86C279.959 66.86 283.759 66.3508 287.337 65.3198L286.23 61.4762ZM275.947 62.86C271.452 62.86 267.293 62.1753 263.454 60.8235L262.125 64.5965C266.427 66.1114 271.04 66.86 275.947 66.86V62.86ZM263.477 60.832C259.626 59.4215 256.291 57.4532 253.452 54.9356L250.798 57.9284C254.037 60.8001 257.812 63.0171 262.102 64.588L263.477 60.832ZM253.452 54.9356C250.628 52.4313 248.415 49.4215 246.808 45.8864L243.167 47.5416C245 51.5745 247.545 55.0434 250.798 57.9284L253.452 54.9356ZM246.813 45.8967C245.221 42.341 244.407 38.3527 244.407 33.9H240.407C240.407 38.8499 241.314 43.4043 243.162 47.5313L246.813 45.8967ZM244.407 33.9C244.407 29.7622 245.238 25.9883 246.879 22.5489L243.268 20.8271C241.354 24.841 240.407 29.2085 240.407 33.9H244.407ZM246.879 22.5489C248.541 19.0641 250.815 16.04 253.712 13.4648L251.055 10.4752C247.76 13.404 245.161 16.8586 243.268 20.8271L246.879 22.5489ZM253.698 13.4768C256.661 10.8917 260.058 8.89351 263.907 7.48404L262.532 3.72796C258.239 5.29982 254.413 7.54428 251.068 10.4631L253.698 13.4768ZM263.93 7.47539C267.765 6.01718 271.823 5.284 276.119 5.284V1.284C271.357 1.284 266.815 2.09882 262.508 3.73661L263.93 7.47539ZM276.119 5.284C279.67 5.284 283.069 5.74793 286.324 6.67025L287.415 2.82175C283.79 1.79473 280.023 1.284 276.119 1.284V5.284ZM286.324 6.67025C289.63 7.60682 292.542 8.80893 295.075 10.2642L297.068 6.79579C294.212 5.15507 290.989 3.83451 287.415 2.82175L286.324 6.67025ZM295.091 10.2731C297.725 11.7546 299.762 13.2776 301.255 14.822L304.131 12.042C302.299 10.1464 299.922 8.40136 297.052 6.78685L295.091 10.2731ZM301.093 12.232L295.417 19.8L298.617 22.2L304.293 14.632L301.093 12.232ZM298.307 19.471C295.239 16.8843 291.842 14.751 288.123 13.0713L286.476 16.7167C289.866 18.2477 292.948 20.185 295.728 22.529L298.307 19.471ZM288.158 13.0877C284.357 11.2808 280.101 10.4 275.431 10.4V14.4C279.591 14.4 283.247 15.1819 286.441 16.7003L288.158 13.0877ZM275.431 10.4C272.214 10.4 269.085 10.9578 266.056 12.0707L267.435 15.8253C270.024 14.8742 272.686 14.4 275.431 14.4V10.4ZM266.09 12.0585C263.051 13.1126 260.312 14.6677 257.886 16.7212L260.469 19.7748C262.514 18.0443 264.821 16.7327 267.401 15.8375L266.09 12.0585ZM257.909 16.7019C255.451 18.7183 253.498 21.1779 252.057 24.0616L255.634 25.8504C256.83 23.4594 258.432 21.447 260.446 19.7941L257.909 16.7019ZM252.057 24.0616C250.582 27.0103 249.867 30.3042 249.867 33.9H253.867C253.867 30.8452 254.471 28.1764 255.634 25.8504L252.057 24.0616ZM249.867 33.9C249.867 37.7687 250.605 41.2663 252.143 44.3404L255.72 42.5516C254.505 40.1217 253.867 37.2553 253.867 33.9H249.867ZM252.15 44.3556C253.651 47.295 255.664 49.7844 258.186 51.8017L260.685 48.6783C258.62 47.0262 256.964 44.9863 255.713 42.5364L252.15 44.3556ZM258.205 51.8166C260.756 53.808 263.642 55.294 266.845 56.2796L268.022 52.4564C265.262 51.6074 262.816 50.3414 260.666 48.6634L258.205 51.8166ZM266.855 56.2827C270.084 57.2572 273.403 57.744 276.807 57.744V53.744C273.79 53.744 270.86 53.3134 268.011 52.4533L266.855 56.2827ZM276.807 57.744C280.128 57.744 283.176 57.3215 285.928 56.4459L284.715 52.6341C282.422 53.3638 279.793 53.744 276.807 53.744V57.744ZM285.954 56.4374C288.664 55.5341 291.106 54.409 293.266 53.0513L291.137 49.6647C289.284 50.8296 287.139 51.8259 284.689 52.6426L285.954 56.4374ZM293.266 53.0513C295.311 51.7658 297.163 50.5022 298.819 49.26L296.419 46.06C294.865 47.2258 293.105 48.4275 291.137 49.6647L293.266 53.0513ZM295.888 48.6606L300.36 56.4006L303.823 54.3994L299.351 46.6594L295.888 48.6606ZM335.451 3.8H337.451V1.8H335.451V3.8ZM335.451 29.772H333.451V31.772H335.451V29.772ZM375.097 29.772V31.772H377.097V29.772H375.097ZM375.097 3.8V1.8H373.097V3.8H375.097ZM384.385 3.8H386.385V1.8H384.385V3.8ZM384.385 64V66H386.385V64H384.385ZM375.097 64H373.097V66H375.097V64ZM375.097 38.716H377.097V36.716H375.097V38.716ZM335.451 38.716V36.716H333.451V38.716H335.451ZM335.451 64V66H337.451V64H335.451ZM326.163 64H324.163V66H326.163V64ZM326.163 3.8V1.8H324.163V3.8H326.163ZM333.451 3.8V29.772H337.451V3.8H333.451ZM335.451 31.772H375.097V27.772H335.451V31.772ZM377.097 29.772V3.8H373.097V29.772H377.097ZM375.097 5.8H384.385V1.8H375.097V5.8ZM382.385 3.8V64H386.385V3.8H382.385ZM384.385 62H375.097V66H384.385V62ZM377.097 64V38.716H373.097V64H377.097ZM375.097 36.716H335.451V40.716H375.097V36.716ZM333.451 38.716V64H337.451V38.716H333.451ZM335.451 62H326.163V66H335.451V62ZM328.163 64V3.8H324.163V64H328.163ZM326.163 5.8H335.451V1.8H326.163V5.8ZM461.943 64L460.132 64.8505L460.673 66H461.943V64ZM455.235 49.724L457.045 48.8735L456.505 47.724H455.235V49.724ZM421.781 49.724V47.724H420.511L419.97 48.8735L421.781 49.724ZM415.073 64V66H416.343L416.883 64.8505L415.073 64ZM405.355 64L403.543 63.1535L402.213 66H405.355V64ZM433.477 3.8V1.8H432.203L431.665 2.95352L433.477 3.8ZM444.055 3.8L445.868 2.95564L445.329 1.8H444.055V3.8ZM472.091 64V66H475.228L473.904 63.1556L472.091 64ZM433.821 23.924L435.631 24.7738L435.633 24.7698L433.821 23.924ZM425.909 40.78L424.098 39.9302L422.76 42.78H425.909V40.78ZM451.021 40.78V42.78H454.156L452.834 39.9367L451.021 40.78ZM443.023 23.58L444.836 22.7367L444.835 22.7342L443.023 23.58ZM440.701 18.506L438.876 19.3241L438.876 19.3241L440.701 18.506ZM438.465 13.088L440.333 12.3737L438.437 7.41698L436.59 12.3916L438.465 13.088ZM436.143 18.764L434.32 17.9408L434.314 17.9548L434.307 17.9688L436.143 18.764ZM463.753 63.1495L457.045 48.8735L453.424 50.5745L460.132 64.8505L463.753 63.1495ZM455.235 47.724H421.781V51.724H455.235V47.724ZM419.97 48.8735L413.262 63.1495L416.883 64.8505L423.591 50.5745L419.97 48.8735ZM415.073 62H405.355V66H415.073V62ZM407.167 64.8465L435.289 4.64648L431.665 2.95352L403.543 63.1535L407.167 64.8465ZM433.477 5.8H444.055V1.8H433.477V5.8ZM442.242 4.64435L470.278 64.8444L473.904 63.1556L445.868 2.95564L442.242 4.64435ZM472.091 62H461.943V66H472.091V62ZM432.01 23.0742L424.098 39.9302L427.719 41.6298L435.631 24.7738L432.01 23.0742ZM425.909 42.78H451.021V38.78H425.909V42.78ZM452.834 39.9367L444.836 22.7367L441.209 24.4233L449.207 41.6233L452.834 39.9367ZM444.835 22.7342C444.036 21.023 443.267 19.3409 442.526 17.6879L438.876 19.3241C439.625 20.9964 440.403 22.697 441.21 24.4258L444.835 22.7342ZM442.526 17.6879C441.798 16.0639 441.066 14.293 440.333 12.3737L436.596 13.8023C437.353 15.7817 438.113 17.6228 438.876 19.3241L442.526 17.6879ZM436.59 12.3916C435.859 14.3595 435.102 16.2089 434.32 17.9408L437.965 19.5872C438.788 17.7644 439.58 15.8298 440.339 13.7844L436.59 12.3916ZM434.307 17.9688C433.57 19.6716 432.803 21.3748 432.008 23.0782L435.633 24.7698C436.443 23.0332 437.225 21.2964 437.978 19.5592L434.307 17.9688Z" fill="#F2F2F2"/>
</svg>
