<svg width="477" height="74" viewBox="0 0 477 74" fill="none" xmlns="http://www.w3.org/2000/svg">
<path d="M13.208 3.8H15.208V1.8H13.208V3.8ZM13.208 32.792H11.208V34.792H13.208V32.792ZM57.464 32.792V34.792H59.464V32.792H57.464ZM57.464 3.8V1.8H55.464V3.8H57.464ZM67.832 3.8H69.832V1.8H67.832V3.8ZM67.832 71V73H69.832V71H67.832ZM57.464 71H55.464V73H57.464V71ZM57.464 42.776H59.464V40.776H57.464V42.776ZM13.208 42.776V40.776H11.208V42.776H13.208ZM13.208 71V73H15.208V71H13.208ZM2.84 71H0.840001V73H2.84V71ZM2.84 3.8V1.8H0.840001V3.8H2.84ZM11.208 3.8V32.792H15.208V3.8H11.208ZM13.208 34.792H57.464V30.792H13.208V34.792ZM59.464 32.792V3.8H55.464V32.792H59.464ZM57.464 5.8H67.832V1.8H57.464V5.8ZM65.832 3.8V71H69.832V3.8H65.832ZM67.832 69H57.464V73H67.832V69ZM59.464 71V42.776H55.464V71H59.464ZM57.464 40.776H13.208V44.776H57.464V40.776ZM11.208 42.776V71H15.208V42.776H11.208ZM13.208 69H2.84V73H13.208V69ZM4.84 71V3.8H0.840001V71H4.84ZM2.84 5.8H13.208V1.8H2.84V5.8ZM169.672 51.032L171.488 51.8701L171.493 51.8596L169.672 51.032ZM161.512 61.976L160.182 60.4827L160.175 60.4887L160.168 60.4949L161.512 61.976ZM149.128 69.368L149.814 71.2468L149.821 71.2443L149.828 71.2417L149.128 69.368ZM117.736 69.368L117.037 71.2417L117.048 71.2458L117.059 71.2498L117.736 69.368ZM105.352 61.976L106.696 60.4949L106.696 60.4949L105.352 61.976ZM97.2883 51.032L95.4675 51.8596L95.4723 51.8701L97.2883 51.032ZM97.2883 23.864L99.1042 24.7021L99.109 24.6916L97.2883 23.864ZM105.352 12.824L106.696 14.3051L106.696 14.3051L105.352 12.824ZM117.736 5.528L118.414 7.40977L118.425 7.40579L118.436 7.40168L117.736 5.528ZM149.128 5.528L148.42 7.39857L148.436 7.40429L148.451 7.40977L149.128 5.528ZM161.512 12.824L160.168 14.3051L160.175 14.3113L160.182 14.3173L161.512 12.824ZM169.672 23.864L167.851 24.6916L167.856 24.7021L169.672 23.864ZM158.344 24.92L156.671 26.0161L156.676 26.0227L156.68 26.0294L158.344 24.92ZM148.264 16.184L147.359 17.9675L147.37 17.9729L147.381 17.9782L148.264 16.184ZM118.6 16.184L119.484 17.9782L119.495 17.9729L119.505 17.9675L118.6 16.184ZM108.52 24.92L106.847 23.8239L106.843 23.8311L108.52 24.92ZM108.52 49.976L106.834 51.0516L106.845 51.0686L106.856 51.0854L108.52 49.976ZM118.6 58.712L117.695 60.4955L117.706 60.5009L117.717 60.5062L118.6 58.712ZM148.264 58.712L149.148 60.5062L149.159 60.5009L149.169 60.4955L148.264 58.712ZM158.344 49.88L160.017 50.9761L160.017 50.9761L158.344 49.88ZM170.552 37.4C170.552 41.9926 169.648 46.2528 167.852 50.2044L171.493 51.8596C173.537 47.3632 174.552 42.5354 174.552 37.4H170.552ZM167.856 50.1939C166.055 54.0972 163.503 57.524 160.182 60.4827L162.843 63.4693C166.562 60.156 169.45 56.2868 171.488 51.8701L167.856 50.1939ZM160.168 60.4949C156.918 63.4443 153.014 65.7824 148.429 67.4943L149.828 71.2417C154.842 69.3696 159.195 66.7797 162.856 63.4571L160.168 60.4949ZM148.443 67.4892C143.953 69.1273 138.972 69.96 133.48 69.96V73.96C139.38 73.96 144.832 73.0647 149.814 71.2468L148.443 67.4892ZM133.48 69.96C127.988 69.96 122.973 69.1274 118.414 67.4862L117.059 71.2498C122.1 73.0646 127.58 73.96 133.48 73.96V69.96ZM118.436 67.4943C113.85 65.7824 109.947 63.4443 106.696 60.4949L104.008 63.4571C107.67 66.7797 112.022 69.3696 117.037 71.2417L118.436 67.4943ZM106.696 60.4949C103.435 57.5359 100.91 54.1054 99.1042 50.1939L95.4723 51.8701C97.507 56.2786 100.357 60.1441 104.008 63.4571L106.696 60.4949ZM99.109 50.2044C97.3128 46.2528 96.4083 41.9926 96.4083 37.4H92.4083C92.4083 42.5354 93.4237 47.3632 95.4675 51.8596L99.109 50.2044ZM96.4083 37.4C96.4083 32.8072 97.3128 28.5833 99.1042 24.7021L95.4723 23.0259C93.4237 27.4647 92.4083 32.2648 92.4083 37.4H96.4083ZM99.109 24.6916C100.916 20.7171 103.441 17.2591 106.696 14.3051L104.008 11.3429C100.352 14.6609 97.5009 18.5629 95.4675 23.0364L99.109 24.6916ZM106.696 14.3051C109.941 11.3608 113.837 9.05742 118.414 7.40977L117.059 3.64622C112.036 5.45457 107.675 8.01524 104.008 11.3429L106.696 14.3051ZM118.436 7.40168C122.988 5.70203 127.997 4.84 133.48 4.84V0.839996C127.572 0.839996 122.084 1.76996 117.037 3.65431L118.436 7.40168ZM133.48 4.84C138.964 4.84 143.937 5.70215 148.42 7.39857L149.836 3.65742C144.847 1.76984 139.388 0.839996 133.48 0.839996V4.84ZM148.451 7.40977C153.028 9.05742 156.923 11.3608 160.168 14.3051L162.856 11.3429C159.189 8.01524 154.829 5.45457 149.806 3.64622L148.451 7.40977ZM160.182 14.3173C163.497 17.271 166.049 20.7254 167.852 24.6916L171.493 23.0364C169.456 18.5546 166.567 14.6489 162.843 11.3307L160.182 14.3173ZM167.856 24.7021C169.648 28.5833 170.552 32.8072 170.552 37.4H174.552C174.552 32.2648 173.537 27.4647 171.488 23.0259L167.856 24.7021ZM163.992 37.4C163.992 32.3604 162.674 27.8091 160.008 23.8106L156.68 26.0294C158.879 29.3269 159.992 33.0956 159.992 37.4H163.992ZM160.017 23.8239C157.374 19.7899 153.731 16.6472 149.148 14.3898L147.381 17.9782C151.373 19.9448 154.45 22.6261 156.671 26.0161L160.017 23.8239ZM149.169 14.4005C144.56 12.0612 139.313 10.92 133.48 10.92V14.92C138.783 14.92 143.393 15.9547 147.359 17.9675L149.169 14.4005ZM133.48 10.92C127.588 10.92 122.308 12.0597 117.695 14.4005L119.505 17.9675C123.469 15.9563 128.109 14.92 133.48 14.92V10.92ZM117.717 14.3898C113.133 16.6472 109.49 19.7899 106.847 23.8239L110.193 26.0161C112.414 22.6261 115.491 19.9448 119.484 17.9782L117.717 14.3898ZM106.843 23.8311C104.248 27.8275 102.968 32.3715 102.968 37.4H106.968C106.968 33.0845 108.056 29.3085 110.198 26.0089L106.843 23.8311ZM102.968 37.4C102.968 42.4287 104.248 46.9984 106.834 51.0516L110.206 48.9004C108.056 45.5296 106.968 41.7153 106.968 37.4H102.968ZM106.856 51.0854C109.497 55.0468 113.131 58.1793 117.695 60.4955L119.505 56.9285C115.494 54.8927 112.407 52.2012 110.184 48.8666L106.856 51.0854ZM117.717 60.5062C122.324 62.7757 127.596 63.88 133.48 63.88V59.88C128.1 59.88 123.452 58.8723 119.484 56.9178L117.717 60.5062ZM133.48 63.88C139.304 63.88 144.543 62.7742 149.148 60.5062L147.381 56.9178C143.409 58.8738 138.792 59.88 133.48 59.88V63.88ZM149.169 60.4955C153.742 58.175 157.378 55.0045 160.017 50.9761L156.671 48.7839C154.447 52.1795 151.362 54.897 147.359 56.9285L149.169 60.4955ZM160.017 50.9761C162.671 46.9254 163.992 42.3816 163.992 37.4H159.992C159.992 41.6344 158.881 45.4106 156.671 48.7839L160.017 50.9761ZM292.476 3.8L294.337 4.5313L295.41 1.8H292.476V3.8ZM266.076 71V73H267.439L267.937 71.7313L266.076 71ZM258.876 71L257.038 71.7883L257.557 73H258.876V71ZM240.636 28.472L242.474 27.6837L240.645 23.4205L238.801 27.6767L240.636 28.472ZM222.204 71V73H223.517L224.039 71.7953L222.204 71ZM214.428 71L212.545 71.6751L213.02 73H214.428V71ZM190.332 3.8V1.8H187.49L188.449 4.47505L190.332 3.8ZM201.756 3.8L203.644 3.14172L203.177 1.8H201.756V3.8ZM215.676 43.736L217.567 43.084L217.564 43.0777L215.676 43.736ZM217.5 49.496L215.579 50.0536L215.582 50.0622L215.584 50.0707L217.5 49.496ZM219.228 55.064L217.324 55.676L219.128 61.2896L221.111 55.7367L219.228 55.064ZM221.34 49.496L223.197 50.2388L223.201 50.2284L223.205 50.218L221.34 49.496ZM223.74 43.736L225.565 44.5541L225.57 44.5431L225.574 44.5321L223.74 43.736ZM236.028 15.416V13.416H234.715L234.193 14.6199L236.028 15.416ZM245.916 15.416L247.759 14.6388L247.243 13.416H245.916V15.416ZM257.82 43.64L255.977 44.4172L255.981 44.4278L257.82 43.64ZM260.124 49.208L258.267 49.9508L258.277 49.9772L258.289 50.0032L260.124 49.208ZM262.332 54.776L260.448 55.4487L262.577 61.4085L264.26 55.3079L262.332 54.776ZM264.06 49.016L262.156 48.402L262.156 48.402L264.06 49.016ZM266.172 43.16L268.029 43.9028L268.033 43.891L268.038 43.8792L266.172 43.16ZM281.34 3.8V1.8H279.967L279.474 3.08082L281.34 3.8ZM290.614 3.06869L264.214 70.2687L267.937 71.7313L294.337 4.5313L290.614 3.06869ZM266.076 69H258.876V73H266.076V69ZM260.714 70.2117L242.474 27.6837L238.798 29.2603L257.038 71.7883L260.714 70.2117ZM238.801 27.6767L220.369 70.2047L224.039 71.7953L242.471 29.2673L238.801 27.6767ZM222.204 69H214.428V73H222.204V69ZM216.31 70.3249L192.214 3.12494L188.449 4.47505L212.545 71.6751L216.31 70.3249ZM190.332 5.8H201.756V1.8H190.332V5.8ZM199.867 4.45827L213.787 44.3943L217.564 43.0777L203.644 3.14172L199.867 4.45827ZM213.785 44.388C214.414 46.2112 215.012 48.0997 215.579 50.0536L219.42 48.9384C218.836 46.9243 218.218 44.9728 217.566 43.084L213.785 44.388ZM215.584 50.0707C216.164 52.0024 216.743 53.8708 217.324 55.676L221.132 54.452C220.56 52.6732 219.988 50.8296 219.415 48.9213L215.584 50.0707ZM221.111 55.7367C221.742 53.9701 222.437 52.1375 223.197 50.2388L219.483 48.7532C218.706 50.6945 217.993 52.5739 217.344 54.3913L221.111 55.7367ZM223.205 50.218C223.961 48.2649 224.748 46.377 225.565 44.5541L221.915 42.9179C221.068 44.807 220.255 46.7591 219.475 48.774L223.205 50.218ZM225.574 44.5321L237.862 16.2121L234.193 14.6199L221.905 42.9399L225.574 44.5321ZM236.028 17.416H245.916V13.416H236.028V17.416ZM244.073 16.1932L255.977 44.4172L259.663 42.8628L247.759 14.6388L244.073 16.1932ZM255.981 44.4278C256.743 46.204 257.504 48.045 258.267 49.9508L261.981 48.4652C261.207 46.531 260.433 44.66 259.658 42.8522L255.981 44.4278ZM258.289 50.0032C259.105 51.8868 259.824 53.7019 260.448 55.4487L264.215 54.1033C263.559 52.2661 262.807 50.3692 261.959 48.4128L258.289 50.0032ZM264.26 55.3079C264.764 53.4816 265.331 51.589 265.963 49.63L262.156 48.402C261.508 50.411 260.924 52.3584 260.404 54.2441L264.26 55.3079ZM265.963 49.63C266.589 47.6891 267.278 45.7801 268.029 43.9028L264.315 42.4172C263.53 44.3799 262.81 46.3749 262.156 48.402L265.963 49.63ZM268.038 43.8792L283.206 4.51917L279.474 3.08082L264.306 42.4408L268.038 43.8792ZM281.34 5.8H292.476V1.8H281.34V5.8ZM364.066 6.488L363.332 8.34854L363.343 8.35303L363.355 8.35739L364.066 6.488ZM375.49 13.784L374.061 15.1836L374.068 15.1909L374.075 15.1982L375.49 13.784ZM382.402 24.536L380.529 25.2383L380.533 25.248L382.402 24.536ZM380.578 54.296L378.816 53.3491L378.812 53.3571L380.578 54.296ZM368.386 66.488L369.353 68.2383L369.361 68.2339L369.369 68.2295L368.386 66.488ZM315.778 71H313.778V73H315.778V71ZM315.778 3.8V1.8H313.778V3.8H315.778ZM362.626 57.848L361.662 56.0956L361.655 56.099L361.649 56.1025L362.626 57.848ZM371.074 49.304L369.285 48.4096L369.285 48.4096L371.074 49.304ZM371.074 25.688L372.862 24.7936L372.862 24.7936L371.074 25.688ZM362.626 17.048L363.612 15.308L363.612 15.308L362.626 17.048ZM326.146 13.784V11.784H324.146V13.784H326.146ZM326.146 61.016H324.146V63.016H326.146V61.016ZM348.226 5.8C354.047 5.8 359.069 6.66731 363.332 8.34854L364.799 4.62745C359.974 2.72468 354.436 1.8 348.226 1.8V5.8ZM363.355 8.35739C367.657 9.99368 371.212 12.2755 374.061 15.1836L376.918 12.3844C373.623 9.02048 369.562 6.43831 364.776 4.6186L363.355 8.35739ZM374.075 15.1982C376.944 18.0669 379.092 21.4077 380.529 25.2382L384.274 23.8338C382.639 19.4723 380.179 15.6451 376.904 12.3698L374.075 15.1982ZM380.533 25.248C381.977 29.0407 382.706 33.0862 382.706 37.4H386.706C386.706 32.6258 385.898 28.0953 384.27 23.824L380.533 25.248ZM382.706 37.4C382.706 43.233 381.402 48.5369 378.816 53.3491L382.339 55.2429C385.257 49.8151 386.706 43.855 386.706 37.4H382.706ZM378.812 53.3571C376.319 58.046 372.541 61.8442 367.402 64.7465L369.369 68.2295C375.11 64.9878 379.46 60.658 382.343 55.2349L378.812 53.3571ZM367.418 64.7377C362.347 67.5415 355.982 69 348.226 69V73C356.469 73 363.544 71.4505 369.353 68.2383L367.418 64.7377ZM348.226 69H315.778V73H348.226V69ZM317.778 71V3.8H313.778V71H317.778ZM315.778 5.8H348.226V1.8H315.778V5.8ZM347.746 63.016C354.096 63.016 359.428 61.9279 363.602 59.5935L361.649 56.1025C358.271 57.9921 353.683 59.016 347.746 59.016V63.016ZM363.589 59.6004C367.75 57.312 370.872 54.1796 372.862 50.1984L369.285 48.4096C367.691 51.5964 365.181 54.16 361.662 56.0956L363.589 59.6004ZM372.862 50.1984C374.805 46.3133 375.762 42.0352 375.762 37.4H371.762C371.762 41.4688 370.926 45.1267 369.285 48.4096L372.862 50.1984ZM375.762 37.4C375.762 32.8828 374.801 28.6703 372.862 24.7936L369.285 26.5824C370.93 29.8737 371.762 33.4692 371.762 37.4H375.762ZM372.862 24.7936C370.875 20.8184 367.761 17.6591 363.612 15.308L361.639 18.788C365.17 20.7889 367.688 23.3896 369.285 26.5824L372.862 24.7936ZM363.612 15.308C359.378 12.9092 354.047 11.784 347.746 11.784V15.784C353.604 15.784 358.193 16.8348 361.639 18.788L363.612 15.308ZM347.746 11.784H326.146V15.784H347.746V11.784ZM324.146 13.784V61.016H328.146V13.784H324.146ZM326.146 63.016H347.746V59.016H326.146V63.016ZM472.158 3.8L473.753 5.00662L476.179 1.8H472.158V3.8ZM441.438 44.408L439.843 43.2014L439.438 43.7367V44.408H441.438ZM441.438 71V73H443.438V71H441.438ZM431.07 71H429.07V73H431.07V71ZM431.07 44.984H433.07V44.2876L432.637 43.7417L431.07 44.984ZM398.43 3.8V1.8H394.293L396.862 5.04224L398.43 3.8ZM412.446 3.8L414.039 2.59069L413.438 1.8H412.446V3.8ZM436.35 35.288L434.757 36.4973L436.376 38.6301L437.961 36.4722L436.35 35.288ZM459.486 3.8V1.8H458.473L457.874 2.61578L459.486 3.8ZM470.563 2.59337L439.843 43.2014L443.033 45.6146L473.753 5.00662L470.563 2.59337ZM439.438 44.408V71H443.438V44.408H439.438ZM441.438 69H431.07V73H441.438V69ZM433.07 71V44.984H429.07V71H433.07ZM432.637 43.7417L399.997 2.55775L396.862 5.04224L429.502 46.2262L432.637 43.7417ZM398.43 5.8H412.446V1.8H398.43V5.8ZM410.853 5.0093L434.757 36.4973L437.943 34.0787L414.039 2.59069L410.853 5.0093ZM437.961 36.4722L461.097 4.98421L457.874 2.61578L434.738 34.1038L437.961 36.4722ZM459.486 5.8H472.158V1.8H459.486V5.8Z" fill="#F2F2F2"/>
</svg>
